<?xml version="1.0" encoding="utf-8"?>
<!-- Generator: Adobe Illustrator 21.0.0, SVG Export Plug-In . SVG Version: 6.00 Build 0)  -->
<svg version="1.1" id="Layer_1" xmlns="http://www.w3.org/2000/svg" xmlns:xlink="http://www.w3.org/1999/xlink" x="0px" y="0px"
	 viewBox="0 0 508.46 138.04" style="enable-background:new 0 0 508.46 138.04;" xml:space="preserve">
<g>
	<defs>
		<path id="SVGID_1_" d="M58.62,56.56l-0.02,0.06l4.63,1.33l1.93,7.72c2.06,8.24,2.22,7.7-3.89,13.61
			c-6.11,5.91-5.56,5.77-13.73,3.44l-6.99-2l0.02-0.06l-4.63-1.33l-1.93-7.72c-2.06-8.24-2.22-7.7,3.89-13.61
			c6.11-5.91,5.56-5.77,13.73-3.44L58.62,56.56L58.62,56.56z"/>
	</defs>
	<defs>
		<path id="SVGID_2_" d="M58.62,56.56l-0.02,0.07l1.81,0.52c1.11,5.58,1.99,11.31,2.64,17.24c-8.77,1.42-17.99,2.31-27.69,2.65
			l-1.36-5.43c-2.06-8.24-2.22-7.7,3.89-13.61c6.11-5.91,5.56-5.77,13.73-3.44L58.62,56.56L58.62,56.56z M8.86,64.85
			c0.85-0.2,1.92-0.31,3.31-0.41c3.95-0.29,5.96-0.36,10.04-0.02c5.15,0.44,5.29,1.19,8.46,7.66l2.46,5.02
			c-7.92,0.21-16.15,0.07-24.7-0.45c-0.09-1.3-0.14-2.62-0.14-3.95C8.3,70.04,8.49,67.42,8.86,64.85L8.86,64.85z M23.99,34.39
			l0.51,0.09c8.35,1.55,7.92,1.2,10.81,8.88c2.89,7.68,2.98,7.15-2.48,13.27c-5.01,5.61-4.99,5.93-11.38,4.75l-0.11-0.02L21,61.3
			l-0.13-0.02l-5.04-0.94c-2.74-0.51-4.54-0.81-5.82-1.26C12.45,49.61,17.35,41.14,23.99,34.39L23.99,34.39z M42.78,21.91
			l-4.44,4.73c-5.2,5.55-5.44,6.13-11.51,5.06C31.5,27.58,36.89,24.25,42.78,21.91L42.78,21.91z M59.18,51.42l-5.47-0.28
			c-8.77-0.45-8.28-0.14-12.35-7.72c-4.07-7.58-4.1-7.02,0.6-14.15c3.24-4.91,5.21-6.53,8.01-6.83
			C53.75,31.68,56.84,41.29,59.18,51.42L59.18,51.42z"/>
	</defs>
	<clipPath id="SVGID_3_">
		<use xlink:href="#SVGID_1_"  style="overflow:visible;"/>
	</clipPath>
	<clipPath id="SVGID_4_" style="clip-path:url(#SVGID_3_);">
		<use xlink:href="#SVGID_2_"  style="overflow:visible;"/>
	</clipPath>
	<g style="clip-path:url(#SVGID_4_);">
		<defs>
			<rect id="SVGID_5_" x="32.66" y="53.09" width="30.48" height="24"/>
		</defs>
		<clipPath id="SVGID_6_">
			<use xlink:href="#SVGID_5_"  style="overflow:visible;"/>
		</clipPath>
		<g style="clip-path:url(#SVGID_6_);">
			
				<image style="overflow:visible;" width="72" height="54" xlink:href="E16D08C06E9153D8.jpg"  transform="matrix(0.48 0 0 -0.48 31.2525 78.1621)">
			</image>
		</g>
	</g>
</g>
<g>
	<defs>
		<path id="SVGID_7_" d="M62.7,23.46l-1.26,28.07l-7.74-0.39c-8.77-0.45-8.28-0.14-12.35-7.72c-4.07-7.58-4.1-7.02,0.6-14.15
			C48.4,19.49,49.83,22.78,62.7,23.46L62.7,23.46z"/>
	</defs>
	<defs>
		<path id="SVGID_8_" d="M58.62,56.56l-0.02,0.07l1.81,0.52c1.11,5.58,1.99,11.31,2.64,17.24c-8.77,1.42-17.99,2.31-27.69,2.65
			l-1.36-5.43c-2.06-8.24-2.22-7.7,3.89-13.61c6.11-5.91,5.56-5.77,13.73-3.44L58.62,56.56L58.62,56.56z M8.86,64.85
			c0.85-0.2,1.92-0.31,3.31-0.41c3.95-0.29,5.96-0.36,10.04-0.02c5.15,0.44,5.29,1.19,8.46,7.66l2.46,5.02
			c-7.92,0.21-16.15,0.07-24.7-0.45c-0.09-1.3-0.14-2.62-0.14-3.95C8.3,70.04,8.49,67.42,8.86,64.85L8.86,64.85z M23.99,34.39
			l0.51,0.09c8.35,1.55,7.92,1.2,10.81,8.88c2.89,7.68,2.98,7.15-2.48,13.27c-5.01,5.61-4.99,5.93-11.38,4.75l-0.11-0.02L21,61.3
			l-0.13-0.02l-5.04-0.94c-2.74-0.51-4.54-0.81-5.82-1.26C12.45,49.61,17.35,41.14,23.99,34.39L23.99,34.39z M42.78,21.91
			l-4.44,4.73c-5.2,5.55-5.44,6.13-11.51,5.06C31.5,27.58,36.89,24.25,42.78,21.91L42.78,21.91z M59.18,51.42l-5.47-0.28
			c-8.77-0.45-8.28-0.14-12.35-7.72c-4.07-7.58-4.1-7.02,0.6-14.15c3.24-4.91,5.21-6.53,8.01-6.83
			C53.75,31.68,56.84,41.29,59.18,51.42L59.18,51.42z"/>
	</defs>
	<clipPath id="SVGID_9_">
		<use xlink:href="#SVGID_7_"  style="overflow:visible;"/>
	</clipPath>
	<clipPath id="SVGID_10_" style="clip-path:url(#SVGID_9_);">
		<use xlink:href="#SVGID_8_"  style="overflow:visible;"/>
	</clipPath>
	<g style="clip-path:url(#SVGID_10_);">
		<defs>
			<rect id="SVGID_11_" x="38.18" y="22.37" width="21.12" height="29.28"/>
		</defs>
		<clipPath id="SVGID_12_">
			<use xlink:href="#SVGID_11_"  style="overflow:visible;"/>
		</clipPath>
		<g style="clip-path:url(#SVGID_12_);">
			
				<image style="overflow:visible;" width="52" height="65" xlink:href="E16D08C06E9153D9.jpg"  transform="matrix(0.48 0 0 -0.48 36.9693 53)">
			</image>
		</g>
	</g>
</g>
<g>
	<defs>
		<path id="SVGID_13_" d="M20.11,17.54l22.77,4.26l-4.54,4.84c-5.98,6.38-5.4,6.2-14.64,4.49l-5.97-1.11L20.11,17.54L20.11,17.54z"
			/>
	</defs>
	<defs>
		<path id="SVGID_14_" d="M58.62,56.56l-0.02,0.07l1.81,0.52c1.11,5.58,1.99,11.31,2.64,17.24c-8.77,1.42-17.99,2.31-27.69,2.65
			l-1.36-5.43c-2.06-8.24-2.22-7.7,3.89-13.61c6.11-5.91,5.56-5.77,13.73-3.44L58.62,56.56L58.62,56.56z M8.86,64.85
			c0.85-0.2,1.92-0.31,3.31-0.41c3.95-0.29,5.96-0.36,10.04-0.02c5.15,0.44,5.29,1.19,8.46,7.66l2.46,5.02
			c-7.92,0.21-16.15,0.07-24.7-0.45c-0.09-1.3-0.14-2.62-0.14-3.95C8.3,70.04,8.49,67.42,8.86,64.85L8.86,64.85z M23.99,34.39
			l0.51,0.09c8.35,1.55,7.92,1.2,10.81,8.88c2.89,7.68,2.98,7.15-2.48,13.27c-5.01,5.61-4.99,5.93-11.38,4.75l-0.11-0.02L21,61.3
			l-0.13-0.02l-5.04-0.94c-2.74-0.51-4.54-0.81-5.82-1.26C12.45,49.61,17.35,41.14,23.99,34.39L23.99,34.39z M42.78,21.91
			l-4.44,4.73c-5.2,5.55-5.44,6.13-11.51,5.06C31.5,27.58,36.89,24.25,42.78,21.91L42.78,21.91z M59.18,51.42l-5.47-0.28
			c-8.77-0.45-8.28-0.14-12.35-7.72c-4.07-7.58-4.1-7.02,0.6-14.15c3.24-4.91,5.21-6.53,8.01-6.83
			C53.75,31.68,56.84,41.29,59.18,51.42L59.18,51.42z"/>
	</defs>
	<clipPath id="SVGID_15_">
		<use xlink:href="#SVGID_13_"  style="overflow:visible;"/>
	</clipPath>
	<clipPath id="SVGID_16_" style="clip-path:url(#SVGID_15_);">
		<use xlink:href="#SVGID_14_"  style="overflow:visible;"/>
	</clipPath>
	<g style="clip-path:url(#SVGID_16_);">
		<defs>
			<rect id="SVGID_17_" x="26.66" y="21.89" width="16.32" height="10.32"/>
		</defs>
		<clipPath id="SVGID_18_">
			<use xlink:href="#SVGID_17_"  style="overflow:visible;"/>
		</clipPath>
		<g style="clip-path:url(#SVGID_18_);">
			
				<image style="overflow:visible;" width="40" height="26" xlink:href="E16D08C06E9153DF.jpg"  transform="matrix(0.48 0 0 -0.48 25.4112 33.4199)">
			</image>
		</g>
	</g>
</g>
<g>
	<defs>
		<path id="SVGID_19_" d="M19.73,33.6l4.78,0.89c8.35,1.55,7.92,1.2,10.81,8.88c2.89,7.68,2.98,7.15-2.48,13.27
			c-5.01,5.61-4.99,5.93-11.38,4.75l-0.11-0.02L21,61.3l-0.13-0.02l-5.04-0.94c-8.35-1.55-7.92-1.2-10.81-8.88
			c-2.89-7.67-2.98-7.15,2.48-13.27C12.73,32.35,12.48,32.24,19.73,33.6L19.73,33.6z"/>
	</defs>
	<defs>
		<path id="SVGID_20_" d="M58.62,56.56l-0.02,0.07l1.81,0.52c1.11,5.58,1.99,11.31,2.64,17.24c-8.77,1.42-17.99,2.31-27.69,2.65
			l-1.36-5.43c-2.06-8.24-2.22-7.7,3.89-13.61c6.11-5.91,5.56-5.77,13.73-3.44L58.62,56.56L58.62,56.56z M8.86,64.85
			c0.85-0.2,1.92-0.31,3.31-0.41c3.95-0.29,5.96-0.36,10.04-0.02c5.15,0.44,5.29,1.19,8.46,7.66l2.46,5.02
			c-7.92,0.21-16.15,0.07-24.7-0.45c-0.09-1.3-0.14-2.62-0.14-3.95C8.3,70.04,8.49,67.42,8.86,64.85L8.86,64.85z M23.99,34.39
			l0.51,0.09c8.35,1.55,7.92,1.2,10.81,8.88c2.89,7.68,2.98,7.15-2.48,13.27c-5.01,5.61-4.99,5.93-11.38,4.75l-0.11-0.02L21,61.3
			l-0.13-0.02l-5.04-0.94c-2.74-0.51-4.54-0.81-5.82-1.26C12.45,49.61,17.35,41.14,23.99,34.39L23.99,34.39z M42.78,21.91
			l-4.44,4.73c-5.2,5.55-5.44,6.13-11.51,5.06C31.5,27.58,36.89,24.25,42.78,21.91L42.78,21.91z M59.18,51.42l-5.47-0.28
			c-8.77-0.45-8.28-0.14-12.35-7.72c-4.07-7.58-4.1-7.02,0.6-14.15c3.24-4.91,5.21-6.53,8.01-6.83
			C53.75,31.68,56.84,41.29,59.18,51.42L59.18,51.42z"/>
	</defs>
	<clipPath id="SVGID_21_">
		<use xlink:href="#SVGID_19_"  style="overflow:visible;"/>
	</clipPath>
	<clipPath id="SVGID_22_" style="clip-path:url(#SVGID_21_);">
		<use xlink:href="#SVGID_20_"  style="overflow:visible;"/>
	</clipPath>
	<g style="clip-path:url(#SVGID_22_);">
		<defs>
			<rect id="SVGID_23_" x="9.86" y="34.37" width="27.36" height="27.6"/>
		</defs>
		<clipPath id="SVGID_24_">
			<use xlink:href="#SVGID_23_"  style="overflow:visible;"/>
		</clipPath>
		<g transform="matrix(1 0 0 1 0 3.814697e-06)" style="clip-path:url(#SVGID_24_);">
			
				<image style="overflow:visible;" width="64" height="61" xlink:href="E16D08C06E9153DA.jpg"  transform="matrix(0.48 0 0 -0.48 8.5054 63.123)">
			</image>
		</g>
	</g>
</g>
<g>
	<defs>
		<path id="SVGID_25_" d="M33.7,78.26l-16.33-1.15L0,78.33l3.02-6.17c3.31-6.75,3.32-7.29,9.15-7.72c3.95-0.29,5.96-0.36,10.04-0.02
			c5.15,0.43,5.29,1.19,8.46,7.66L33.7,78.26L33.7,78.26z"/>
	</defs>
	<defs>
		<path id="SVGID_26_" d="M58.62,56.56l-0.02,0.07l1.81,0.52c1.11,5.58,1.99,11.31,2.64,17.24c-8.77,1.42-17.99,2.31-27.69,2.65
			l-1.36-5.43c-2.06-8.24-2.22-7.7,3.89-13.61c6.11-5.91,5.56-5.77,13.73-3.44L58.62,56.56L58.62,56.56z M8.86,64.85
			c0.85-0.2,1.92-0.31,3.31-0.41c3.95-0.29,5.96-0.36,10.04-0.02c5.15,0.44,5.29,1.19,8.46,7.66l2.46,5.02
			c-7.92,0.21-16.15,0.07-24.7-0.45c-0.09-1.3-0.14-2.62-0.14-3.95C8.3,70.04,8.49,67.42,8.86,64.85L8.86,64.85z M23.99,34.39
			l0.51,0.09c8.35,1.55,7.92,1.2,10.81,8.88c2.89,7.68,2.98,7.15-2.48,13.27c-5.01,5.61-4.99,5.93-11.38,4.75l-0.11-0.02L21,61.3
			l-0.13-0.02l-5.04-0.94c-2.74-0.51-4.54-0.81-5.82-1.26C12.45,49.61,17.35,41.14,23.99,34.39L23.99,34.39z M42.78,21.91
			l-4.44,4.73c-5.2,5.55-5.44,6.13-11.51,5.06C31.5,27.58,36.89,24.25,42.78,21.91L42.78,21.91z M59.18,51.42l-5.47-0.28
			c-8.77-0.45-8.28-0.14-12.35-7.72c-4.07-7.58-4.1-7.02,0.6-14.15c3.24-4.91,5.21-6.53,8.01-6.83
			C53.75,31.68,56.84,41.29,59.18,51.42L59.18,51.42z"/>
	</defs>
	<clipPath id="SVGID_27_">
		<use xlink:href="#SVGID_25_"  style="overflow:visible;"/>
	</clipPath>
	<clipPath id="SVGID_28_" style="clip-path:url(#SVGID_27_);">
		<use xlink:href="#SVGID_26_"  style="overflow:visible;"/>
	</clipPath>
	<g style="clip-path:url(#SVGID_28_);">
		<defs>
			<rect id="SVGID_29_" x="8.18" y="64.13" width="25.2" height="13.2"/>
		</defs>
		<clipPath id="SVGID_30_">
			<use xlink:href="#SVGID_29_"  style="overflow:visible;"/>
		</clipPath>
		<g style="clip-path:url(#SVGID_30_);">
			
				<image style="overflow:visible;" width="60" height="32" xlink:href="E16D08C06E9153DB.jpg"  transform="matrix(0.48 0 0 -0.48 7.0703 78.6953)">
			</image>
		</g>
	</g>
</g>
<g>
	<defs>
		<path id="SVGID_31_" d="M56.61,26.15c5.32,0.92,8.83,6.28,7.84,11.97c-0.99,5.69-6.1,9.55-11.42,8.62
			c-5.32-0.92-8.83-6.28-7.84-11.97C46.18,29.09,51.3,25.23,56.61,26.15L56.61,26.15z"/>
	</defs>
	<defs>
		<path id="SVGID_32_" d="M58.62,56.56l-0.02,0.07l1.81,0.52c1.11,5.58,1.99,11.31,2.64,17.24c-8.77,1.42-17.99,2.31-27.69,2.65
			l-1.36-5.43c-2.06-8.24-2.22-7.7,3.89-13.61c6.11-5.91,5.56-5.77,13.73-3.44L58.62,56.56L58.62,56.56z M8.86,64.85
			c0.85-0.2,1.92-0.31,3.31-0.41c3.95-0.29,5.96-0.36,10.04-0.02c5.15,0.44,5.29,1.19,8.46,7.66l2.46,5.02
			c-7.92,0.21-16.15,0.07-24.7-0.45c-0.09-1.3-0.14-2.62-0.14-3.95C8.3,70.04,8.49,67.42,8.86,64.85L8.86,64.85z M23.99,34.39
			l0.51,0.09c8.35,1.55,7.92,1.2,10.81,8.88c2.89,7.68,2.98,7.15-2.48,13.27c-5.01,5.61-4.99,5.93-11.38,4.75l-0.11-0.02L21,61.3
			l-0.13-0.02l-5.04-0.94c-2.74-0.51-4.54-0.81-5.82-1.26C12.45,49.61,17.35,41.14,23.99,34.39L23.99,34.39z M42.78,21.91
			l-4.44,4.73c-5.2,5.55-5.44,6.13-11.51,5.06C31.5,27.58,36.89,24.25,42.78,21.91L42.78,21.91z M59.18,51.42l-5.47-0.28
			c-8.77-0.45-8.28-0.14-12.35-7.72c-4.07-7.58-4.1-7.02,0.6-14.15c3.24-4.91,5.21-6.53,8.01-6.83
			C53.75,31.68,56.84,41.29,59.18,51.42L59.18,51.42z"/>
	</defs>
	<clipPath id="SVGID_33_">
		<use xlink:href="#SVGID_31_"  style="overflow:visible;"/>
	</clipPath>
	<clipPath id="SVGID_34_" style="clip-path:url(#SVGID_33_);">
		<use xlink:href="#SVGID_32_"  style="overflow:visible;"/>
	</clipPath>
	<g style="clip-path:url(#SVGID_34_);">
		<defs>
			<rect id="SVGID_35_" x="44.9" y="26.69" width="12.96" height="20.4"/>
		</defs>
		<clipPath id="SVGID_36_">
			<use xlink:href="#SVGID_35_"  style="overflow:visible;"/>
		</clipPath>
		<g style="clip-path:url(#SVGID_36_);">
			
				<image style="overflow:visible;" width="32" height="46" xlink:href="E16D08C06E9153D8.png"  transform="matrix(0.48 0 0 -0.48 43.6221 48.1367)">
			</image>
		</g>
	</g>
</g>
<g>
	<defs>
		<path id="SVGID_37_" d="M50.39,58.69c4.8,0.83,7.86,6.3,6.84,12.21c-1.03,5.91-5.75,10.03-10.56,9.19
			c-4.8-0.83-7.86-6.3-6.84-12.21C40.86,61.97,45.59,57.86,50.39,58.69L50.39,58.69z"/>
	</defs>
	<defs>
		<path id="SVGID_38_" d="M58.62,56.56l-0.02,0.07l1.81,0.52c1.11,5.58,1.99,11.31,2.64,17.24c-8.77,1.42-17.99,2.31-27.69,2.65
			l-1.36-5.43c-2.06-8.24-2.22-7.7,3.89-13.61c6.11-5.91,5.56-5.77,13.73-3.44L58.62,56.56L58.62,56.56z M8.86,64.85
			c0.85-0.2,1.92-0.31,3.31-0.41c3.95-0.29,5.96-0.36,10.04-0.02c5.15,0.44,5.29,1.19,8.46,7.66l2.46,5.02
			c-7.92,0.21-16.15,0.07-24.7-0.45c-0.09-1.3-0.14-2.62-0.14-3.95C8.3,70.04,8.49,67.42,8.86,64.85L8.86,64.85z M23.99,34.39
			l0.51,0.09c8.35,1.55,7.92,1.2,10.81,8.88c2.89,7.68,2.98,7.15-2.48,13.27c-5.01,5.61-4.99,5.93-11.38,4.75l-0.11-0.02L21,61.3
			l-0.13-0.02l-5.04-0.94c-2.74-0.51-4.54-0.81-5.82-1.26C12.45,49.61,17.35,41.14,23.99,34.39L23.99,34.39z M42.78,21.91
			l-4.44,4.73c-5.2,5.55-5.44,6.13-11.51,5.06C31.5,27.58,36.89,24.25,42.78,21.91L42.78,21.91z M59.18,51.42l-5.47-0.28
			c-8.77-0.45-8.28-0.14-12.35-7.72c-4.07-7.58-4.1-7.02,0.6-14.15c3.24-4.91,5.21-6.53,8.01-6.83
			C53.75,31.68,56.84,41.29,59.18,51.42L59.18,51.42z"/>
	</defs>
	<clipPath id="SVGID_39_">
		<use xlink:href="#SVGID_37_"  style="overflow:visible;"/>
	</clipPath>
	<clipPath id="SVGID_40_" style="clip-path:url(#SVGID_39_);">
		<use xlink:href="#SVGID_38_"  style="overflow:visible;"/>
	</clipPath>
	<g style="clip-path:url(#SVGID_40_);">
		<defs>
			<rect id="SVGID_41_" x="39.62" y="58.37" width="18" height="18.48"/>
		</defs>
		<clipPath id="SVGID_42_">
			<use xlink:href="#SVGID_41_"  style="overflow:visible;"/>
		</clipPath>
		<g style="clip-path:url(#SVGID_42_);">
			
				<image style="overflow:visible;" width="44" height="42" xlink:href="E16D08C06E9153D7.png"  transform="matrix(0.48 0 0 -0.48 38.3472 78.0312)">
			</image>
		</g>
	</g>
</g>
<g>
	<defs>
		<path id="SVGID_43_" d="M19.19,68.27c4.8,0.83,8.02,5.4,7.18,10.21c-0.83,4.8-5.4,8.02-10.21,7.19c-4.8-0.83-8.02-5.4-7.19-10.21
			C9.82,70.65,14.39,67.44,19.19,68.27L19.19,68.27z"/>
	</defs>
	<defs>
		<path id="SVGID_44_" d="M58.62,56.56l-0.02,0.07l1.81,0.52c1.11,5.58,1.99,11.31,2.64,17.24c-8.77,1.42-17.99,2.31-27.69,2.65
			l-1.36-5.43c-2.06-8.24-2.22-7.7,3.89-13.61c6.11-5.91,5.56-5.77,13.73-3.44L58.62,56.56L58.62,56.56z M8.86,64.85
			c0.85-0.2,1.92-0.31,3.31-0.41c3.95-0.29,5.96-0.36,10.04-0.02c5.15,0.44,5.29,1.19,8.46,7.66l2.46,5.02
			c-7.92,0.21-16.15,0.07-24.7-0.45c-0.09-1.3-0.14-2.62-0.14-3.95C8.3,70.04,8.49,67.42,8.86,64.85L8.86,64.85z M23.99,34.39
			l0.51,0.09c8.35,1.55,7.92,1.2,10.81,8.88c2.89,7.68,2.98,7.15-2.48,13.27c-5.01,5.61-4.99,5.93-11.38,4.75l-0.11-0.02L21,61.3
			l-0.13-0.02l-5.04-0.94c-2.74-0.51-4.54-0.81-5.82-1.26C12.45,49.61,17.35,41.14,23.99,34.39L23.99,34.39z M42.78,21.91
			l-4.44,4.73c-5.2,5.55-5.44,6.13-11.51,5.06C31.5,27.58,36.89,24.25,42.78,21.91L42.78,21.91z M59.18,51.42l-5.47-0.28
			c-8.77-0.45-8.28-0.14-12.35-7.72c-4.07-7.58-4.1-7.02,0.6-14.15c3.24-4.91,5.21-6.53,8.01-6.83
			C53.75,31.68,56.84,41.29,59.18,51.42L59.18,51.42z"/>
	</defs>
	<clipPath id="SVGID_45_">
		<use xlink:href="#SVGID_43_"  style="overflow:visible;"/>
	</clipPath>
	<clipPath id="SVGID_46_" style="clip-path:url(#SVGID_45_);">
		<use xlink:href="#SVGID_44_"  style="overflow:visible;"/>
	</clipPath>
	<g style="clip-path:url(#SVGID_46_);">
		<defs>
			<rect id="SVGID_47_" x="8.66" y="67.97" width="18" height="9.36"/>
		</defs>
		<clipPath id="SVGID_48_">
			<use xlink:href="#SVGID_47_"  style="overflow:visible;"/>
		</clipPath>
		<g style="clip-path:url(#SVGID_48_);">
			
				<image style="overflow:visible;" width="44" height="24" xlink:href="E16D08C06E9153E8.png"  transform="matrix(0.48 0 0 -0.48 7.3677 78.7324)">
			</image>
		</g>
	</g>
</g>
<g>
	<defs>
		<path id="SVGID_49_" d="M23.48,39.09c4.8,0.83,8.02,5.4,7.19,10.21c-0.83,4.8-5.4,8.02-10.21,7.19c-4.8-0.84-8.02-5.4-7.18-10.21
			C14.1,41.47,18.67,38.25,23.48,39.09L23.48,39.09z"/>
	</defs>
	<defs>
		<path id="SVGID_50_" d="M58.62,56.56l-0.02,0.07l1.81,0.52c1.11,5.58,1.99,11.31,2.64,17.24c-8.77,1.42-17.99,2.31-27.69,2.65
			l-1.36-5.43c-2.06-8.24-2.22-7.7,3.89-13.61c6.11-5.91,5.56-5.77,13.73-3.44L58.62,56.56L58.62,56.56z M8.86,64.85
			c0.85-0.2,1.92-0.31,3.31-0.41c3.95-0.29,5.96-0.36,10.04-0.02c5.15,0.44,5.29,1.19,8.46,7.66l2.46,5.02
			c-7.92,0.21-16.15,0.07-24.7-0.45c-0.09-1.3-0.14-2.62-0.14-3.95C8.3,70.04,8.49,67.42,8.86,64.85L8.86,64.85z M23.99,34.39
			l0.51,0.09c8.35,1.55,7.92,1.2,10.81,8.88c2.89,7.68,2.98,7.15-2.48,13.27c-5.01,5.61-4.99,5.93-11.38,4.75l-0.11-0.02L21,61.3
			l-0.13-0.02l-5.04-0.94c-2.74-0.51-4.54-0.81-5.82-1.26C12.45,49.61,17.35,41.14,23.99,34.39L23.99,34.39z M42.78,21.91
			l-4.44,4.73c-5.2,5.55-5.44,6.13-11.51,5.06C31.5,27.58,36.89,24.25,42.78,21.91L42.78,21.91z M59.18,51.42l-5.47-0.28
			c-8.77-0.45-8.28-0.14-12.35-7.72c-4.07-7.58-4.1-7.02,0.6-14.15c3.24-4.91,5.21-6.53,8.01-6.83
			C53.75,31.68,56.84,41.29,59.18,51.42L59.18,51.42z"/>
	</defs>
	<clipPath id="SVGID_51_">
		<use xlink:href="#SVGID_49_"  style="overflow:visible;"/>
	</clipPath>
	<clipPath id="SVGID_52_" style="clip-path:url(#SVGID_51_);">
		<use xlink:href="#SVGID_50_"  style="overflow:visible;"/>
	</clipPath>
	<g style="clip-path:url(#SVGID_52_);">
		<defs>
			<rect id="SVGID_53_" x="13.22" y="38.93" width="17.76" height="17.76"/>
		</defs>
		<clipPath id="SVGID_54_">
			<use xlink:href="#SVGID_53_"  style="overflow:visible;"/>
		</clipPath>
		<g style="clip-path:url(#SVGID_54_);">
			
				<image style="overflow:visible;" width="44" height="41" xlink:href="E16D08C06E9153EB.png"  transform="matrix(0.48 0 0 -0.48 12.0767 57.6562)">
			</image>
		</g>
	</g>
</g>
<g>
	<defs>
		<path id="SVGID_55_" d="M63.03,127.37l-0.08,0c-9.53,0-18.49-2.44-26.29-6.73c-0.74-0.79-1.36-1.56-1.82-2.17
			c1.43,0.97,3.74,2,6.61,2.2c3.12,0.26,5.71-0.56,7.24-1.37c1.58-0.82,2.09-1.63,2.13-1.6c-0.05,0.05-4.44,1.82-9.08,1.34
			c-2.77-0.13-5.54-1.48-7.23-2.02c0.43-0.15,3.98-3.34,4.85-4.05c6.81-5.55,11.75-13.56,13.31-22.11c-1.11,4.4-3.15,8.6-5.88,12.29
			c-2.1,3.07-4.64,5.85-7.51,8.19c-0.89,0.72-4.65,3.47-5.83,4.14c-1,0.56-2,0.34-2.67,0.04c0.79-1.04,1.55-2.25,2.12-3.62
			c1.99-5.61-0.6-10.97-0.98-11.92c-0.21-0.5-0.64-1.36-1.18-2.36c-0.57-0.99-1.15-2.08-1.6-3.25c-0.94-2.27-1.55-4.4-1.54-4.4
			c0,0,0.34,2.19,1.03,4.58c0.31,1.19,0.82,2.46,1.29,3.47c0.45,1.03,0.8,1.89,1,2.37c0.19,0.48,0.84,1.96,1.17,4.01
			c0.16,1.04,0.23,2.15,0.19,3.45c0.02,1.14-0.27,2.34-0.78,3.44c-0.72,1.55-1.77,2.91-2.79,4.01
			c-10.69-8.6-18.08-21.15-19.95-35.43c19.65,2.4,37.95,2.94,54.94,1.54C64.79,95.55,64.61,110.75,63.03,127.37L63.03,127.37z"/>
	</defs>
	<clipPath id="SVGID_56_">
		<use xlink:href="#SVGID_55_"  style="overflow:visible;"/>
	</clipPath>
	<g style="clip-path:url(#SVGID_56_);">
		<defs>
			<rect id="SVGID_57_" x="8.66" y="79.73" width="55.92" height="47.76"/>
		</defs>
		<clipPath id="SVGID_58_">
			<use xlink:href="#SVGID_57_"  style="overflow:visible;"/>
		</clipPath>
		<g style="clip-path:url(#SVGID_58_);">
			
				<image style="overflow:visible;" width="124" height="104" xlink:href="94C243CFFB011E87.jpg"  transform="matrix(0.48 0 0 -0.48 7.627 128.9121)">
			</image>
		</g>
	</g>
</g>
<path style="fill-rule:evenodd;clip-rule:evenodd;fill:none;" d="M63.03,127.37l-0.08,0c-9.53,0-18.49-2.44-26.29-6.73
	c-0.74-0.79-1.36-1.56-1.82-2.17c1.43,0.97,3.74,2,6.61,2.2c3.12,0.26,5.71-0.56,7.24-1.37c1.58-0.82,2.09-1.63,2.13-1.6
	c-0.05,0.05-4.44,1.82-9.08,1.34c-2.77-0.13-5.54-1.48-7.23-2.02c0.43-0.15,3.98-3.34,4.85-4.05c6.81-5.55,11.75-13.56,13.31-22.11
	c-1.11,4.4-3.15,8.6-5.88,12.29c-2.1,3.07-4.64,5.85-7.51,8.19c-0.89,0.72-4.65,3.47-5.83,4.14c-1,0.56-2,0.34-2.67,0.04
	c0.79-1.04,1.55-2.25,2.12-3.62c1.99-5.61-0.6-10.97-0.98-11.92c-0.21-0.5-0.64-1.36-1.18-2.36c-0.57-0.99-1.15-2.08-1.6-3.25
	c-0.94-2.27-1.55-4.4-1.54-4.4c0,0,0.34,2.19,1.03,4.58c0.31,1.19,0.82,2.46,1.29,3.47c0.45,1.03,0.8,1.89,1,2.37
	c0.19,0.48,0.84,1.96,1.17,4.01c0.16,1.04,0.23,2.15,0.19,3.45c0.02,1.14-0.27,2.34-0.78,3.44c-0.72,1.55-1.77,2.91-2.79,4.01
	c-10.69-8.6-18.08-21.15-19.95-35.43c19.65,2.4,37.95,2.94,54.94,1.54C64.79,95.55,64.61,110.75,63.03,127.37L63.03,127.37z"/>
<g>
	<defs>
		<path id="SVGID_59_" d="M34.73,90.97c-5.24-6.55-11.78-10.87-14.51-14.34c-3.54-4.5-3.23-8.64-3.23-8.64s-17.44,31.76,4.72,51.12
			c2.86,1.83,4.9,2.05,6.3,1.66c1.49-2.34,3.11-5.43,3.8-8.79c0.4-1.93,0.42-3.92-0.03-5.72c-0.42-2.06-0.93-3.79-1.57-5.37
			c-1.26-3.11-2.83-5.2-3.31-5.89c-0.49-0.68-1.37-1.92-2.46-3.38c-1.1-1.42-2.38-3.24-3.31-5c-1.98-3.52-3.32-6.84-3.31-6.84
			c-0.01,0,1.73,3.13,4.05,6.37c1.14,1.67,2.45,3.18,3.71,4.53c1.22,1.37,2.21,2.57,2.72,3.28c0.94,1.35,7,8.86,5.92,18.44
			c-0.39,2.36-1.15,4.55-2.01,6.48c1.17,0.22,2.83,0.21,4.2-1.04c1.62-1.49,6.54-7.22,7.68-8.68c3.68-4.74,6.67-10.06,8.84-15.67
			c2.94-6.82,4.61-14.21,4.75-21.55c0.67,14.06-4.17,28.52-12.87,39.77c-1.11,1.44-5.55,7.78-6.17,8.17
			c2.87,0.23,7.73,1.34,12.15,0.52c7.48-0.95,13.76-5.36,13.82-5.46c-0.07-0.02-0.58,1.44-2.77,3.31
			c-2.11,1.84-5.91,4.09-10.92,4.83c-4.61,0.75-8.63-0.04-11.24-1.04c1.54,1.28,3.87,3.05,6.58,4.52
			c5.98,3.33,10.66,3.55,14.52,1.99c5.69-2.29,10.3-7.56,15.56-12.21c1.7-1.5,4.1-4.69,6.55-5.21c-6.2,1.32-11.87,0.39-15.23-0.92
			c-3.05-1.17-5.98-2.54-9-3.08c12.47-16.03,1.61-45.6,1.61-45.6l-0.1,0.17C58.92,62.32,39.34,73.52,34.73,90.97L34.73,90.97z"/>
	</defs>
	<defs>
		<path id="SVGID_60_" d="M63.03,127.37l-0.08,0c-9.53,0-18.49-2.44-26.29-6.73c-0.74-0.79-1.36-1.56-1.82-2.17
			c1.43,0.97,3.74,2,6.61,2.2c3.12,0.26,5.71-0.56,7.24-1.37c1.58-0.82,2.09-1.63,2.13-1.6c-0.05,0.05-4.44,1.82-9.08,1.34
			c-2.77-0.13-5.54-1.48-7.23-2.02c0.43-0.15,3.98-3.34,4.85-4.05c6.81-5.55,11.75-13.56,13.31-22.11c-1.11,4.4-3.15,8.6-5.88,12.29
			c-2.1,3.07-4.64,5.85-7.51,8.19c-0.89,0.72-4.65,3.47-5.83,4.14c-1,0.56-2,0.34-2.67,0.04c0.79-1.04,1.55-2.25,2.12-3.62
			c1.99-5.61-0.6-10.97-0.98-11.92c-0.21-0.5-0.64-1.36-1.18-2.36c-0.57-0.99-1.15-2.08-1.6-3.25c-0.94-2.27-1.55-4.4-1.54-4.4
			c0,0,0.34,2.19,1.03,4.58c0.31,1.19,0.82,2.46,1.29,3.47c0.45,1.03,0.8,1.89,1,2.37c0.19,0.48,0.84,1.96,1.17,4.01
			c0.16,1.04,0.23,2.15,0.19,3.45c0.02,1.14-0.27,2.34-0.78,3.44c-0.72,1.55-1.77,2.91-2.79,4.01
			c-10.69-8.6-18.08-21.15-19.95-35.43c19.65,2.4,37.95,2.94,54.94,1.54C64.79,95.55,64.61,110.75,63.03,127.37L63.03,127.37z"/>
	</defs>
	<clipPath id="SVGID_61_">
		<use xlink:href="#SVGID_59_"  style="overflow:visible;"/>
	</clipPath>
	<clipPath id="SVGID_62_" style="clip-path:url(#SVGID_61_);">
		<use xlink:href="#SVGID_60_"  style="overflow:visible;"/>
	</clipPath>
	<g style="clip-path:url(#SVGID_62_);">
		<defs>
			<rect id="SVGID_63_" x="10.58" y="80.21" width="53.76" height="47.28"/>
		</defs>
		<clipPath id="SVGID_64_">
			<use xlink:href="#SVGID_63_"  style="overflow:visible;"/>
		</clipPath>
		<g style="clip-path:url(#SVGID_64_);">
			
				<image style="overflow:visible;" width="120" height="102" xlink:href="94C243CFFB011E85.png"  transform="matrix(0.48 0 0 -0.48 9.5039 128.5566)">
			</image>
		</g>
	</g>
</g>
<g>
	<defs>
		<path id="SVGID_65_" d="M22.11,89.49c-3.66-3.67-7.96-5.88-9.87-7.82c-2.48-2.52-2.57-5.09-2.57-5.09s-8.56,20.67,6.35,31.06
			c1.88,0.93,3.14,0.93,3.98,0.6c0.75-1.54,1.54-3.54,1.74-5.65c0.11-1.21-0.01-2.43-0.4-3.51c-0.4-1.24-0.83-2.26-1.33-3.19
			c-0.99-1.82-2.09-3-2.43-3.39c-0.35-0.38-0.97-1.09-1.73-1.91c-0.77-0.8-1.68-1.83-2.37-2.85c-1.45-2.03-2.5-3.97-2.5-3.97
			c0,0,1.28,1.8,2.92,3.63c0.81,0.95,1.72,1.79,2.59,2.53c0.84,0.76,1.53,1.43,1.89,1.83c0.67,0.77,4.9,4.97,4.88,10.92
			c-0.08,1.48-0.4,2.87-0.8,4.12c0.73,0.06,1.75-0.06,2.51-0.92c0.9-1.03,3.53-4.87,4.13-5.85c1.94-3.16,3.41-6.62,4.37-10.22
			c1.35-4.39,1.87-9.03,1.46-13.55c1.36,8.58-0.63,17.78-5.21,25.28c-0.58,0.96-2.88,5.15-3.23,5.43c1.78-0.05,4.84,0.3,7.49-0.5
			c4.53-1.09,8.09-4.22,8.11-4.28c-0.05-0.01-0.26,0.92-1.48,2.22c-1.17,1.27-3.35,2.91-6.37,3.7c-2.78,0.77-5.3,0.56-6.97,0.12
			c1.03,0.68,2.58,1.61,4.34,2.33c3.9,1.64,6.78,1.46,9.04,0.24c3.34-1.79,5.81-5.34,8.73-8.54c0.94-1.04,2.2-3.15,3.67-3.64
			c-3.71,1.23-7.26,1.04-9.41,0.46c-1.95-0.51-3.84-1.16-5.73-1.28c6.57-10.68-2.09-28.1-2.09-28.1l-0.05,0.11
			C35.01,70.28,23.76,78.47,22.11,89.49L22.11,89.49z"/>
	</defs>
	<defs>
		<path id="SVGID_66_" d="M63.03,127.37l-0.08,0c-9.53,0-18.49-2.44-26.29-6.73c-0.74-0.79-1.36-1.56-1.82-2.17
			c1.43,0.97,3.74,2,6.61,2.2c3.12,0.26,5.71-0.56,7.24-1.37c1.58-0.82,2.09-1.63,2.13-1.6c-0.05,0.05-4.44,1.82-9.08,1.34
			c-2.77-0.13-5.54-1.48-7.23-2.02c0.43-0.15,3.98-3.34,4.85-4.05c6.81-5.55,11.75-13.56,13.31-22.11c-1.11,4.4-3.15,8.6-5.88,12.29
			c-2.1,3.07-4.64,5.85-7.51,8.19c-0.89,0.72-4.65,3.47-5.83,4.14c-1,0.56-2,0.34-2.67,0.04c0.79-1.04,1.55-2.25,2.12-3.62
			c1.99-5.61-0.6-10.97-0.98-11.92c-0.21-0.5-0.64-1.36-1.18-2.36c-0.57-0.99-1.15-2.08-1.6-3.25c-0.94-2.27-1.55-4.4-1.54-4.4
			c0,0,0.34,2.19,1.03,4.58c0.31,1.19,0.82,2.46,1.29,3.47c0.45,1.03,0.8,1.89,1,2.37c0.19,0.48,0.84,1.96,1.17,4.01
			c0.16,1.04,0.23,2.15,0.19,3.45c0.02,1.14-0.27,2.34-0.78,3.44c-0.72,1.55-1.77,2.91-2.79,4.01
			c-10.69-8.6-18.08-21.15-19.95-35.43c19.65,2.4,37.95,2.94,54.94,1.54C64.79,95.55,64.61,110.75,63.03,127.37L63.03,127.37z"/>
	</defs>
	<clipPath id="SVGID_67_">
		<use xlink:href="#SVGID_65_"  style="overflow:visible;"/>
	</clipPath>
	<clipPath id="SVGID_68_" style="clip-path:url(#SVGID_67_);">
		<use xlink:href="#SVGID_66_"  style="overflow:visible;"/>
	</clipPath>
	<g style="clip-path:url(#SVGID_68_);">
		<defs>
			<rect id="SVGID_69_" x="8.66" y="79.73" width="44.4" height="32.16"/>
		</defs>
		<clipPath id="SVGID_70_">
			<use xlink:href="#SVGID_69_"  style="overflow:visible;"/>
		</clipPath>
		<g style="clip-path:url(#SVGID_70_);">
			
				<image style="overflow:visible;" width="100" height="71" xlink:href="94C243CFFB011E83.png"  transform="matrix(0.48 0 0 -0.48 7.5117 112.8554)">
			</image>
		</g>
	</g>
</g>
<g>
	<defs>
		<path id="SVGID_71_" d="M46.11,105.7c-3.24-4.04-7.27-6.71-8.96-8.85c-2.19-2.78-2-5.34-2-5.34s-10.77,19.61,2.91,31.56
			c1.77,1.13,3.02,1.26,3.89,1.03c0.92-1.45,1.92-3.35,2.35-5.43c0.25-1.19,0.26-2.42-0.02-3.53c-0.26-1.27-0.58-2.34-0.97-3.31
			c-0.78-1.92-1.75-3.21-2.05-3.63c-0.31-0.42-0.84-1.18-1.52-2.08c-0.68-0.88-1.47-2-2.04-3.09c-1.22-2.17-2.05-4.22-2.05-4.22
			c0,0,1.07,1.93,2.5,3.93c0.7,1.03,1.51,1.96,2.29,2.8c0.75,0.84,1.37,1.59,1.68,2.03c0.58,0.84,4.32,5.47,3.66,11.38
			c-0.24,1.46-0.71,2.81-1.24,4c0.72,0.14,1.75,0.13,2.59-0.64c1-0.92,4.04-4.46,4.74-5.36c2.27-2.93,4.12-6.21,5.46-9.68
			c1.82-4.21,2.85-8.77,2.94-13.31c0.42,8.68-2.57,17.61-7.95,24.55c-0.69,0.89-3.42,4.8-3.81,5.04c1.77,0.14,4.78,0.83,7.5,0.32
			c4.62-0.58,8.5-3.31,8.53-3.37c-0.05-0.01-0.36,0.89-1.71,2.04c-1.31,1.13-3.65,2.53-6.74,2.98c-2.85,0.46-5.33-0.02-6.94-0.64
			c0.95,0.79,2.39,1.89,4.06,2.79c3.69,2.05,6.58,2.19,8.96,1.23c3.51-1.41,6.36-4.67,9.61-7.54c1.05-0.93,2.53-2.89,4.04-3.22
			c-3.83,0.82-7.33,0.24-9.4-0.57c-1.88-0.72-3.69-1.57-5.56-1.9c7.7-9.89,1-28.15,1-28.15l-0.06,0.11
			C61.04,88.02,48.96,94.93,46.11,105.7L46.11,105.7z"/>
	</defs>
	<defs>
		<path id="SVGID_72_" d="M63.03,127.37l-0.08,0c-9.53,0-18.49-2.44-26.29-6.73c-0.74-0.79-1.36-1.56-1.82-2.17
			c1.43,0.97,3.74,2,6.61,2.2c3.12,0.26,5.71-0.56,7.24-1.37c1.58-0.82,2.09-1.63,2.13-1.6c-0.05,0.05-4.44,1.82-9.08,1.34
			c-2.77-0.13-5.54-1.48-7.23-2.02c0.43-0.15,3.98-3.34,4.85-4.05c6.81-5.55,11.75-13.56,13.31-22.11c-1.11,4.4-3.15,8.6-5.88,12.29
			c-2.1,3.07-4.64,5.85-7.51,8.19c-0.89,0.72-4.65,3.47-5.83,4.14c-1,0.56-2,0.34-2.67,0.04c0.79-1.04,1.55-2.25,2.12-3.62
			c1.99-5.61-0.6-10.97-0.98-11.92c-0.21-0.5-0.64-1.36-1.18-2.36c-0.57-0.99-1.15-2.08-1.6-3.25c-0.94-2.27-1.55-4.4-1.54-4.4
			c0,0,0.34,2.19,1.03,4.58c0.31,1.19,0.82,2.46,1.29,3.47c0.45,1.03,0.8,1.89,1,2.37c0.19,0.48,0.84,1.96,1.17,4.01
			c0.16,1.04,0.23,2.15,0.19,3.45c0.02,1.14-0.27,2.34-0.78,3.44c-0.72,1.55-1.77,2.91-2.79,4.01
			c-10.69-8.6-18.08-21.15-19.95-35.43c19.65,2.4,37.95,2.94,54.94,1.54C64.79,95.55,64.61,110.75,63.03,127.37L63.03,127.37z"/>
	</defs>
	<clipPath id="SVGID_73_">
		<use xlink:href="#SVGID_71_"  style="overflow:visible;"/>
	</clipPath>
	<clipPath id="SVGID_74_" style="clip-path:url(#SVGID_73_);">
		<use xlink:href="#SVGID_72_"  style="overflow:visible;"/>
	</clipPath>
	<g style="clip-path:url(#SVGID_74_);">
		<defs>
			<rect id="SVGID_75_" x="30.98" y="87.41" width="33.6" height="40.08"/>
		</defs>
		<clipPath id="SVGID_76_">
			<use xlink:href="#SVGID_75_"  style="overflow:visible;"/>
		</clipPath>
		<g style="clip-path:url(#SVGID_76_);">
			
				<image style="overflow:visible;" width="76" height="87" xlink:href="94C243CFFB011E9D.png"  transform="matrix(0.48 0 0 -0.48 29.75 128.5078)">
			</image>
		</g>
	</g>
</g>
<g>
	<defs>
		<path id="SVGID_77_" d="M63.03,127.37l-0.08,0c-9.53,0-18.49-2.44-26.29-6.73c-0.74-0.79-1.36-1.56-1.82-2.17
			c1.43,0.97,3.74,2,6.61,2.2c3.12,0.26,5.71-0.56,7.24-1.37c1.58-0.82,2.09-1.63,2.13-1.6c-0.05,0.05-4.44,1.82-9.08,1.34
			c-2.77-0.13-5.54-1.48-7.23-2.02c0.43-0.15,3.98-3.34,4.85-4.05c6.81-5.55,11.75-13.56,13.31-22.11c-1.11,4.4-3.15,8.6-5.88,12.29
			c-2.1,3.07-4.64,5.85-7.51,8.19c-0.89,0.72-4.65,3.47-5.83,4.14c-1,0.56-2,0.34-2.67,0.04c0.79-1.04,1.55-2.25,2.12-3.62
			c1.99-5.61-0.6-10.97-0.98-11.92c-0.21-0.5-0.64-1.36-1.18-2.36c-0.57-0.99-1.15-2.08-1.6-3.25c-0.94-2.27-1.55-4.4-1.54-4.4
			c0,0,0.34,2.19,1.03,4.58c0.31,1.19,0.82,2.46,1.29,3.47c0.45,1.03,0.8,1.89,1,2.37c0.19,0.48,0.84,1.96,1.17,4.01
			c0.16,1.04,0.23,2.15,0.19,3.45c0.02,1.14-0.27,2.34-0.78,3.44c-0.72,1.55-1.77,2.91-2.79,4.01
			c-10.69-8.6-18.08-21.15-19.95-35.43c19.65,2.4,37.95,2.94,54.94,1.54C64.79,95.55,64.61,110.75,63.03,127.37L63.03,127.37z"/>
	</defs>
	<clipPath id="SVGID_78_">
		<use xlink:href="#SVGID_77_"  style="overflow:visible;"/>
	</clipPath>
	<path style="clip-path:url(#SVGID_78_);fill-rule:evenodd;clip-rule:evenodd;fill:#211F1F;" d="M26.34,89.5
		c0.57,2.04-0.21,3.1,1.43,6.56c2.37,5,5.56,11.78,1.94,17.02c-0.64,0.92-6.62,5.02-1.18,4.85c3.41-0.11,5.28,4.91,14.48,4.16
		c0.78-0.06,3.48-0.79,4.74-0.75c1.97,0.08,9.93-2.64,4.66-4c-3.45-0.89-6.88-0.25-10.55-0.25c-3.1,0-4.36,0.65,0.3-2.07
		c4.2-2.45,4.13-0.43,6.29-7.07c0.98-3.02,2.43-5.48,3.44-9.09c0.29-1.03,3.92-11.42,1.55-10.87c-1.99,0.46-4.34,8.05-5.97,10.2
		c-2.52,3.3-2.25,5.09-6.13,7.91c-3.37,2.45-5.25,13.03-5.25,0.03c0-1.19-1.9-7.65-2.61-8.02c-1.66-0.87-4.62-7.45-5.05-9.55
		C28.26,87.76,26.25,89.16,26.34,89.5L26.34,89.5z"/>
</g>
<g>
	<defs>
		<path id="SVGID_79_" d="M36.22,99.09c-2.23-4.67-5.56-8.18-6.72-10.65c-1.5-3.2-0.73-5.65-0.73-5.65s-14.94,16.65-4.33,31.4
			c1.46,1.5,2.66,1.92,3.56,1.88c1.22-1.2,2.63-2.83,3.52-4.75c0.51-1.1,0.8-2.3,0.78-3.44c0.04-1.3-0.03-2.41-0.19-3.45
			c-0.32-2.05-0.97-3.53-1.17-4.01c-0.2-0.48-0.55-1.34-1-2.37c-0.46-1.01-0.98-2.28-1.29-3.47c-0.7-2.39-1.04-4.58-1.03-4.58
			c0,0,0.6,2.13,1.54,4.4c0.45,1.17,1.03,2.25,1.6,3.25c0.54,0.99,0.97,1.86,1.18,2.36c0.37,0.95,2.97,6.31,0.98,11.92
			c-0.56,1.37-1.33,2.58-2.12,3.62c0.67,0.3,1.67,0.53,2.67-0.04c1.19-0.67,4.95-3.42,5.83-4.14c2.88-2.34,5.42-5.11,7.51-8.19
			c2.73-3.69,4.77-7.9,5.88-12.29c-1.57,8.55-6.5,16.56-13.31,22.11c-0.87,0.71-4.43,3.9-4.85,4.05c1.7,0.54,4.46,1.89,7.23,2.02
			c4.63,0.48,9.03-1.3,9.08-1.34c-0.04-0.03-0.55,0.78-2.13,1.6c-1.53,0.81-4.12,1.63-7.24,1.37c-2.88-0.2-5.18-1.23-6.61-2.2
			c0.75,0.99,1.9,2.38,3.32,3.64c3.13,2.84,5.91,3.63,8.45,3.23c3.74-0.58,7.25-3.1,11.07-5.16c1.23-0.67,3.12-2.24,4.67-2.21
			c-3.91-0.07-7.19-1.43-9.03-2.69c-1.67-1.13-3.24-2.37-4.98-3.11c9.75-7.89,7.36-27.19,7.36-27.19l-0.08,0.09
			C54.77,85.25,41.44,89.24,36.22,99.09L36.22,99.09z"/>
	</defs>
	<defs>
		<path id="SVGID_80_" d="M63.03,127.37l-0.08,0c-9.53,0-18.49-2.44-26.29-6.73c-0.74-0.79-1.36-1.56-1.82-2.17
			c1.43,0.97,3.74,2,6.61,2.2c3.12,0.26,5.71-0.56,7.24-1.37c1.58-0.82,2.09-1.63,2.13-1.6c-0.05,0.05-4.44,1.82-9.08,1.34
			c-2.77-0.13-5.54-1.48-7.23-2.02c0.43-0.15,3.98-3.34,4.85-4.05c6.81-5.55,11.75-13.56,13.31-22.11c-1.11,4.4-3.15,8.6-5.88,12.29
			c-2.1,3.07-4.64,5.85-7.51,8.19c-0.89,0.72-4.65,3.47-5.83,4.14c-1,0.56-2,0.34-2.67,0.04c0.79-1.04,1.55-2.25,2.12-3.62
			c1.99-5.61-0.6-10.97-0.98-11.92c-0.21-0.5-0.64-1.36-1.18-2.36c-0.57-0.99-1.15-2.08-1.6-3.25c-0.94-2.27-1.55-4.4-1.54-4.4
			c0,0,0.34,2.19,1.03,4.58c0.31,1.19,0.82,2.46,1.29,3.47c0.45,1.03,0.8,1.89,1,2.37c0.19,0.48,0.84,1.96,1.17,4.01
			c0.16,1.04,0.23,2.15,0.19,3.45c0.02,1.14-0.27,2.34-0.78,3.44c-0.72,1.55-1.77,2.91-2.79,4.01
			c-10.69-8.6-18.08-21.15-19.95-35.43c19.65,2.4,37.95,2.94,54.94,1.54C64.79,95.55,64.61,110.75,63.03,127.37L63.03,127.37z"/>
	</defs>
	<clipPath id="SVGID_81_">
		<use xlink:href="#SVGID_79_"  style="overflow:visible;"/>
	</clipPath>
	<clipPath id="SVGID_82_" style="clip-path:url(#SVGID_81_);">
		<use xlink:href="#SVGID_80_"  style="overflow:visible;"/>
	</clipPath>
	<g style="clip-path:url(#SVGID_82_);">
		<defs>
			<rect id="SVGID_83_" x="20.42" y="82.61" width="42" height="42.72"/>
		</defs>
		<clipPath id="SVGID_84_">
			<use xlink:href="#SVGID_83_"  style="overflow:visible;"/>
		</clipPath>
		<g transform="matrix(1 0 0 1 0 7.629395e-06)" style="clip-path:url(#SVGID_84_);">
			
				<image style="overflow:visible;" width="92" height="93" xlink:href="94C243CFFB011E9F.jpg"  transform="matrix(0.48 0 0 -0.48 19.2432 126.6992)">
			</image>
		</g>
	</g>
</g>
<g>
	<defs>
		<polygon id="SVGID_85_" points="56.29,66.15 129.94,66.15 129.94,138.04 56.29,138.04 56.29,66.15 		"/>
	</defs>
	<defs>
		<path id="SVGID_86_" d="M117.47,68.74c0.09,1.31,0.14,2.64,0.14,3.97c0,29.18-22.87,53.02-51.67,54.57
			c2.82-16.43,4.2-31.9,4.24-46.48C87.3,78.87,103.04,74.87,117.47,68.74L117.47,68.74z"/>
	</defs>
	<clipPath id="SVGID_87_">
		<use xlink:href="#SVGID_85_"  style="overflow:visible;"/>
	</clipPath>
	<clipPath id="SVGID_88_" style="clip-path:url(#SVGID_87_);">
		<use xlink:href="#SVGID_86_"  style="overflow:visible;"/>
	</clipPath>
	<g style="clip-path:url(#SVGID_88_);">
		<defs>
			<rect id="SVGID_89_" x="65.78" y="68.69" width="51.84" height="58.8"/>
		</defs>
		<clipPath id="SVGID_90_">
			<use xlink:href="#SVGID_89_"  style="overflow:visible;"/>
		</clipPath>
		<g style="clip-path:url(#SVGID_90_);">
			
				<image style="overflow:visible;" width="116" height="127" xlink:href="94C243CFFB011E82.png"  transform="matrix(0.48 0 0 -0.48 64.5884 128.9218)">
			</image>
		</g>
	</g>
</g>
<g>
	<defs>
		<polygon id="SVGID_91_" points="102.75,106.18 103.79,111.11 105.5,110.63 105.51,110.65 104.4,105.62 102.75,106.18 		"/>
	</defs>
	<defs>
		<path id="SVGID_92_" d="M117.47,68.74c0.09,1.31,0.14,2.64,0.14,3.97c0,29.18-22.87,53.02-51.67,54.57
			c2.82-16.43,4.2-31.9,4.24-46.48C87.3,78.87,103.04,74.87,117.47,68.74L117.47,68.74z"/>
	</defs>
	<clipPath id="SVGID_93_">
		<use xlink:href="#SVGID_91_"  style="overflow:visible;"/>
	</clipPath>
	<clipPath id="SVGID_94_" style="clip-path:url(#SVGID_93_);">
		<use xlink:href="#SVGID_92_"  style="overflow:visible;"/>
	</clipPath>
	<g style="clip-path:url(#SVGID_94_);">
		<defs>
			<rect id="SVGID_95_" x="102.74" y="105.41" width="2.16" height="4.32"/>
		</defs>
		<clipPath id="SVGID_96_">
			<use xlink:href="#SVGID_95_"  style="overflow:visible;"/>
		</clipPath>
		<g style="clip-path:url(#SVGID_96_);">
			
				<image style="overflow:visible;" width="12" height="13" xlink:href="94C243CFFB011E83.jpg"  transform="matrix(0.48 0 0 -0.48 101.6109 110.8105)">
			</image>
		</g>
	</g>
</g>
<g>
	<defs>
		<polygon id="SVGID_97_" points="78.62,107.15 77.76,112.12 79.53,112.31 79.52,112.33 80.36,107.25 78.62,107.15 		"/>
	</defs>
	<defs>
		<path id="SVGID_98_" d="M117.47,68.74c0.09,1.31,0.14,2.64,0.14,3.97c0,29.18-22.87,53.02-51.67,54.57
			c2.82-16.43,4.2-31.9,4.24-46.48C87.3,78.87,103.04,74.87,117.47,68.74L117.47,68.74z"/>
	</defs>
	<clipPath id="SVGID_99_">
		<use xlink:href="#SVGID_97_"  style="overflow:visible;"/>
	</clipPath>
	<clipPath id="SVGID_100_" style="clip-path:url(#SVGID_99_);">
		<use xlink:href="#SVGID_98_"  style="overflow:visible;"/>
	</clipPath>
	<g style="clip-path:url(#SVGID_100_);">
		<defs>
			<rect id="SVGID_101_" x="77.54" y="107.09" width="2.88" height="5.28"/>
		</defs>
		<clipPath id="SVGID_102_">
			<use xlink:href="#SVGID_101_"  style="overflow:visible;"/>
		</clipPath>
		<g style="clip-path:url(#SVGID_102_);">
			
				<image style="overflow:visible;" width="12" height="15" xlink:href="94C243CFFB011E85.jpg"  transform="matrix(0.48 0 0 -0.48 76.2144 113.375)">
			</image>
		</g>
	</g>
</g>
<g>
	<defs>
		<polygon id="SVGID_103_" points="73.87,98.53 77.32,102.21 78.53,100.9 78.55,100.92 74.99,97.2 73.87,98.53 		"/>
	</defs>
	<defs>
		<path id="SVGID_104_" d="M117.47,68.74c0.09,1.31,0.14,2.64,0.14,3.97c0,29.18-22.87,53.02-51.67,54.57
			c2.82-16.43,4.2-31.9,4.24-46.48C87.3,78.87,103.04,74.87,117.47,68.74L117.47,68.74z"/>
	</defs>
	<clipPath id="SVGID_105_">
		<use xlink:href="#SVGID_103_"  style="overflow:visible;"/>
	</clipPath>
	<clipPath id="SVGID_106_" style="clip-path:url(#SVGID_105_);">
		<use xlink:href="#SVGID_104_"  style="overflow:visible;"/>
	</clipPath>
	<g style="clip-path:url(#SVGID_106_);">
		<defs>
			<rect id="SVGID_107_" x="73.7" y="97.01" width="5.04" height="5.28"/>
		</defs>
		<clipPath id="SVGID_108_">
			<use xlink:href="#SVGID_107_"  style="overflow:visible;"/>
		</clipPath>
		<g style="clip-path:url(#SVGID_108_);">
			
				<image style="overflow:visible;" width="16" height="15" xlink:href="94C243CFFB011E86.jpg"  transform="matrix(0.48 0 0 -0.48 72.3789 103.332)">
			</image>
		</g>
	</g>
</g>
<g>
	<defs>
		<polygon id="SVGID_109_" points="87.32,100.71 82.82,103.01 82.12,101.38 82.1,101.38 86.71,99.08 87.32,100.71 		"/>
	</defs>
	<defs>
		<path id="SVGID_110_" d="M117.47,68.74c0.09,1.31,0.14,2.64,0.14,3.97c0,29.18-22.87,53.02-51.67,54.57
			c2.82-16.43,4.2-31.9,4.24-46.48C87.3,78.87,103.04,74.87,117.47,68.74L117.47,68.74z"/>
	</defs>
	<clipPath id="SVGID_111_">
		<use xlink:href="#SVGID_109_"  style="overflow:visible;"/>
	</clipPath>
	<clipPath id="SVGID_112_" style="clip-path:url(#SVGID_111_);">
		<use xlink:href="#SVGID_110_"  style="overflow:visible;"/>
	</clipPath>
	<g style="clip-path:url(#SVGID_112_);">
		<defs>
			<rect id="SVGID_113_" x="82.1" y="98.93" width="5.28" height="4.32"/>
		</defs>
		<clipPath id="SVGID_114_">
			<use xlink:href="#SVGID_113_"  style="overflow:visible;"/>
		</clipPath>
		<g style="clip-path:url(#SVGID_114_);">
			
				<image style="overflow:visible;" width="16" height="13" xlink:href="94C243CFFB011E82.jpg"  transform="matrix(0.48 0 0 -0.48 81.1294 104.5625)">
			</image>
		</g>
	</g>
</g>
<g>
	<defs>
		<polygon id="SVGID_115_" points="90.21,89.37 91.21,94.31 89.45,94.54 89.45,94.56 88.47,89.51 90.21,89.37 		"/>
	</defs>
	<defs>
		<path id="SVGID_116_" d="M117.47,68.74c0.09,1.31,0.14,2.64,0.14,3.97c0,29.18-22.87,53.02-51.67,54.57
			c2.82-16.43,4.2-31.9,4.24-46.48C87.3,78.87,103.04,74.87,117.47,68.74L117.47,68.74z"/>
	</defs>
	<clipPath id="SVGID_117_">
		<use xlink:href="#SVGID_115_"  style="overflow:visible;"/>
	</clipPath>
	<clipPath id="SVGID_118_" style="clip-path:url(#SVGID_117_);">
		<use xlink:href="#SVGID_116_"  style="overflow:visible;"/>
	</clipPath>
	<g style="clip-path:url(#SVGID_118_);">
		<defs>
			<rect id="SVGID_119_" x="88.34" y="89.33" width="2.88" height="5.28"/>
		</defs>
		<clipPath id="SVGID_120_">
			<use xlink:href="#SVGID_119_"  style="overflow:visible;"/>
		</clipPath>
		<g style="clip-path:url(#SVGID_120_);">
			
				<image style="overflow:visible;" width="12" height="15" xlink:href="94C243CFFB011EA6.jpg"  transform="matrix(0.48 0 0 -0.48 87.1104 95.9785)">
			</image>
		</g>
	</g>
</g>
<g>
	<defs>
		<polygon id="SVGID_121_" points="74.64,86.21 72.36,90.71 74,91.41 74,91.43 76.28,86.81 74.64,86.21 		"/>
	</defs>
	<defs>
		<path id="SVGID_122_" d="M117.47,68.74c0.09,1.31,0.14,2.64,0.14,3.97c0,29.18-22.87,53.02-51.67,54.57
			c2.82-16.43,4.2-31.9,4.24-46.48C87.3,78.87,103.04,74.87,117.47,68.74L117.47,68.74z"/>
	</defs>
	<clipPath id="SVGID_123_">
		<use xlink:href="#SVGID_121_"  style="overflow:visible;"/>
	</clipPath>
	<clipPath id="SVGID_124_" style="clip-path:url(#SVGID_123_);">
		<use xlink:href="#SVGID_122_"  style="overflow:visible;"/>
	</clipPath>
	<g style="clip-path:url(#SVGID_124_);">
		<defs>
			<rect id="SVGID_125_" x="72.26" y="86.21" width="4.08" height="5.28"/>
		</defs>
		<clipPath id="SVGID_126_">
			<use xlink:href="#SVGID_125_"  style="overflow:visible;"/>
		</clipPath>
		<g style="clip-path:url(#SVGID_126_);">
			
				<image style="overflow:visible;" width="16" height="15" xlink:href="94C243CFFB011EA5.jpg"  transform="matrix(0.48 0 0 -0.48 70.9004 92.916)">
			</image>
		</g>
	</g>
</g>
<g>
	<defs>
		<polygon id="SVGID_127_" points="84.32,85.78 79.31,85.17 79.64,83.42 79.62,83.42 84.72,84.08 84.32,85.78 		"/>
	</defs>
	<defs>
		<path id="SVGID_128_" d="M117.47,68.74c0.09,1.31,0.14,2.64,0.14,3.97c0,29.18-22.87,53.02-51.67,54.57
			c2.82-16.43,4.2-31.9,4.24-46.48C87.3,78.87,103.04,74.87,117.47,68.74L117.47,68.74z"/>
	</defs>
	<clipPath id="SVGID_129_">
		<use xlink:href="#SVGID_127_"  style="overflow:visible;"/>
	</clipPath>
	<clipPath id="SVGID_130_" style="clip-path:url(#SVGID_129_);">
		<use xlink:href="#SVGID_128_"  style="overflow:visible;"/>
	</clipPath>
	<g style="clip-path:url(#SVGID_130_);">
		<defs>
			<rect id="SVGID_131_" x="79.22" y="83.33" width="5.52" height="2.64"/>
		</defs>
		<clipPath id="SVGID_132_">
			<use xlink:href="#SVGID_131_"  style="overflow:visible;"/>
		</clipPath>
		<g style="clip-path:url(#SVGID_132_);">
			
				<image style="overflow:visible;" width="16" height="10" xlink:href="94C243CFFB011EA2.jpg"  transform="matrix(0.48 0 0 -0.48 78.2544 87.373)">
			</image>
		</g>
	</g>
</g>
<g>
	<defs>
		<polygon id="SVGID_133_" points="84.38,121.22 79.95,118.82 80.9,117.31 80.89,117.3 85.38,119.8 84.38,121.22 		"/>
	</defs>
	<defs>
		<path id="SVGID_134_" d="M117.47,68.74c0.09,1.31,0.14,2.64,0.14,3.97c0,29.18-22.87,53.02-51.67,54.57
			c2.82-16.43,4.2-31.9,4.24-46.48C87.3,78.87,103.04,74.87,117.47,68.74L117.47,68.74z"/>
	</defs>
	<clipPath id="SVGID_135_">
		<use xlink:href="#SVGID_133_"  style="overflow:visible;"/>
	</clipPath>
	<clipPath id="SVGID_136_" style="clip-path:url(#SVGID_135_);">
		<use xlink:href="#SVGID_134_"  style="overflow:visible;"/>
	</clipPath>
	<g style="clip-path:url(#SVGID_136_);">
		<defs>
			<rect id="SVGID_137_" x="79.94" y="117.17" width="5.52" height="4.08"/>
		</defs>
		<clipPath id="SVGID_138_">
			<use xlink:href="#SVGID_137_"  style="overflow:visible;"/>
		</clipPath>
		<g style="clip-path:url(#SVGID_138_);">
			
				<image style="overflow:visible;" width="20" height="13" xlink:href="94C243CFFB011EAD.jpg"  transform="matrix(0.48 0 0 -0.48 78.6284 122.623)">
			</image>
		</g>
	</g>
</g>
<g>
	<defs>
		<polygon id="SVGID_139_" points="95.77,80.35 91.91,83.6 90.86,82.17 90.84,82.18 94.81,78.9 95.77,80.35 		"/>
	</defs>
	<defs>
		<path id="SVGID_140_" d="M117.47,68.74c0.09,1.31,0.14,2.64,0.14,3.97c0,29.18-22.87,53.02-51.67,54.57
			c2.82-16.43,4.2-31.9,4.24-46.48C87.3,78.87,103.04,74.87,117.47,68.74L117.47,68.74z"/>
	</defs>
	<clipPath id="SVGID_141_">
		<use xlink:href="#SVGID_139_"  style="overflow:visible;"/>
	</clipPath>
	<clipPath id="SVGID_142_" style="clip-path:url(#SVGID_141_);">
		<use xlink:href="#SVGID_140_"  style="overflow:visible;"/>
	</clipPath>
	<g style="clip-path:url(#SVGID_142_);">
		<defs>
			<rect id="SVGID_143_" x="90.74" y="78.77" width="5.04" height="5.04"/>
		</defs>
		<clipPath id="SVGID_144_">
			<use xlink:href="#SVGID_143_"  style="overflow:visible;"/>
		</clipPath>
		<g style="clip-path:url(#SVGID_144_);">
			
				<image style="overflow:visible;" width="16" height="15" xlink:href="94C243CFFB011EAE.jpg"  transform="matrix(0.48 0 0 -0.48 89.3999 85.1464)">
			</image>
		</g>
	</g>
</g>
<g>
	<defs>
		<polygon id="SVGID_145_" points="111.25,85.36 112.25,90.31 110.48,90.54 110.49,90.56 109.51,85.51 111.25,85.36 		"/>
	</defs>
	<defs>
		<path id="SVGID_146_" d="M117.47,68.74c0.09,1.31,0.14,2.64,0.14,3.97c0,29.18-22.87,53.02-51.67,54.57
			c2.82-16.43,4.2-31.9,4.24-46.48C87.3,78.87,103.04,74.87,117.47,68.74L117.47,68.74z"/>
	</defs>
	<clipPath id="SVGID_147_">
		<use xlink:href="#SVGID_145_"  style="overflow:visible;"/>
	</clipPath>
	<clipPath id="SVGID_148_" style="clip-path:url(#SVGID_147_);">
		<use xlink:href="#SVGID_146_"  style="overflow:visible;"/>
	</clipPath>
	<g style="clip-path:url(#SVGID_148_);">
		<defs>
			<rect id="SVGID_149_" x="109.46" y="85.25" width="2.88" height="5.52"/>
		</defs>
		<clipPath id="SVGID_150_">
			<use xlink:href="#SVGID_149_"  style="overflow:visible;"/>
		</clipPath>
		<g style="clip-path:url(#SVGID_150_);">
			
				<image style="overflow:visible;" width="12" height="16" xlink:href="94C243CFFB011EAC.jpg"  transform="matrix(0.48 0 0 -0.48 108.1724 92)">
			</image>
		</g>
	</g>
</g>
<g>
	<defs>
		<polygon id="SVGID_151_" points="108.76,95.34 104.84,98.52 106.06,99.82 106.04,99.84 110,96.55 108.76,95.34 		"/>
	</defs>
	<defs>
		<path id="SVGID_152_" d="M117.47,68.74c0.09,1.31,0.14,2.64,0.14,3.97c0,29.18-22.87,53.02-51.67,54.57
			c2.82-16.43,4.2-31.9,4.24-46.48C87.3,78.87,103.04,74.87,117.47,68.74L117.47,68.74z"/>
	</defs>
	<clipPath id="SVGID_153_">
		<use xlink:href="#SVGID_151_"  style="overflow:visible;"/>
	</clipPath>
	<clipPath id="SVGID_154_" style="clip-path:url(#SVGID_153_);">
		<use xlink:href="#SVGID_152_"  style="overflow:visible;"/>
	</clipPath>
	<g style="clip-path:url(#SVGID_154_);">
		<defs>
			<rect id="SVGID_155_" x="104.66" y="95.33" width="5.52" height="4.56"/>
		</defs>
		<clipPath id="SVGID_156_">
			<use xlink:href="#SVGID_155_"  style="overflow:visible;"/>
		</clipPath>
		<g style="clip-path:url(#SVGID_156_);">
			
				<image style="overflow:visible;" width="16" height="14" xlink:href="94C243CFFB011EA3.jpg"  transform="matrix(0.48 0 0 -0.48 103.4829 101.3125)">
			</image>
		</g>
	</g>
</g>
<g>
	<defs>
		<polygon id="SVGID_157_" points="98.59,101.3 93.78,99.8 94.42,98.14 94.4,98.13 99.3,99.71 98.59,101.3 		"/>
	</defs>
	<defs>
		<path id="SVGID_158_" d="M117.47,68.74c0.09,1.31,0.14,2.64,0.14,3.97c0,29.18-22.87,53.02-51.67,54.57
			c2.82-16.43,4.2-31.9,4.24-46.48C87.3,78.87,103.04,74.87,117.47,68.74L117.47,68.74z"/>
	</defs>
	<clipPath id="SVGID_159_">
		<use xlink:href="#SVGID_157_"  style="overflow:visible;"/>
	</clipPath>
	<clipPath id="SVGID_160_" style="clip-path:url(#SVGID_159_);">
		<use xlink:href="#SVGID_158_"  style="overflow:visible;"/>
	</clipPath>
	<g style="clip-path:url(#SVGID_160_);">
		<defs>
			<rect id="SVGID_161_" x="93.62" y="97.97" width="5.76" height="3.36"/>
		</defs>
		<clipPath id="SVGID_162_">
			<use xlink:href="#SVGID_161_"  style="overflow:visible;"/>
		</clipPath>
		<g style="clip-path:url(#SVGID_162_);">
			
				<image style="overflow:visible;" width="20" height="11" xlink:href="94C243CFFB011EA4.jpg"  transform="matrix(0.48 0 0 -0.48 92.5244 102.373)">
			</image>
		</g>
	</g>
</g>
<g>
	<defs>
		<polygon id="SVGID_163_" points="105.28,80.72 100.48,79.17 101.14,77.52 101.12,77.51 106.01,79.13 105.28,80.72 		"/>
	</defs>
	<defs>
		<path id="SVGID_164_" d="M117.47,68.74c0.09,1.31,0.14,2.64,0.14,3.97c0,29.18-22.87,53.02-51.67,54.57
			c2.82-16.43,4.2-31.9,4.24-46.48C87.3,78.87,103.04,74.87,117.47,68.74L117.47,68.74z"/>
	</defs>
	<clipPath id="SVGID_165_">
		<use xlink:href="#SVGID_163_"  style="overflow:visible;"/>
	</clipPath>
	<clipPath id="SVGID_166_" style="clip-path:url(#SVGID_165_);">
		<use xlink:href="#SVGID_164_"  style="overflow:visible;"/>
	</clipPath>
	<g style="clip-path:url(#SVGID_166_);">
		<defs>
			<rect id="SVGID_167_" x="100.34" y="77.33" width="5.76" height="3.6"/>
		</defs>
		<clipPath id="SVGID_168_">
			<use xlink:href="#SVGID_167_"  style="overflow:visible;"/>
		</clipPath>
		<g style="clip-path:url(#SVGID_168_);">
			
				<image style="overflow:visible;" width="16" height="11" xlink:href="94C243CFFB011EA7.jpg"  transform="matrix(0.48 0 0 -0.48 99.3789 82.1015)">
			</image>
		</g>
	</g>
</g>
<g>
	<defs>
		<polygon id="SVGID_169_" points="116.86,76.12 113,79.37 111.95,77.94 111.93,77.95 115.89,74.67 116.86,76.12 		"/>
	</defs>
	<defs>
		<path id="SVGID_170_" d="M117.47,68.74c0.09,1.31,0.14,2.64,0.14,3.97c0,29.18-22.87,53.02-51.67,54.57
			c2.82-16.43,4.2-31.9,4.24-46.48C87.3,78.87,103.04,74.87,117.47,68.74L117.47,68.74z"/>
	</defs>
	<clipPath id="SVGID_171_">
		<use xlink:href="#SVGID_169_"  style="overflow:visible;"/>
	</clipPath>
	<clipPath id="SVGID_172_" style="clip-path:url(#SVGID_171_);">
		<use xlink:href="#SVGID_170_"  style="overflow:visible;"/>
	</clipPath>
	<g style="clip-path:url(#SVGID_172_);">
		<defs>
			<rect id="SVGID_173_" x="111.86" y="74.45" width="5.04" height="5.04"/>
		</defs>
		<clipPath id="SVGID_174_">
			<use xlink:href="#SVGID_173_"  style="overflow:visible;"/>
		</clipPath>
		<g style="clip-path:url(#SVGID_174_);">
			
				<image style="overflow:visible;" width="16" height="14" xlink:href="94C243CFFB011E9B.jpg"  transform="matrix(0.48 0 0 -0.48 110.4624 80.5)">
			</image>
		</g>
	</g>
</g>
<g>
	<defs>
		<path id="SVGID_175_" d="M86.21,80.88c2.52-1.29,5.61-0.28,6.9,2.24c1.29,2.52,0.28,5.61-2.24,6.9c-2.52,1.29-5.61,0.28-6.9-2.24
			C82.68,85.25,83.68,82.16,86.21,80.88L86.21,80.88z"/>
	</defs>
	<defs>
		<path id="SVGID_176_" d="M117.47,68.74c0.09,1.31,0.14,2.64,0.14,3.97c0,29.18-22.87,53.02-51.67,54.57
			c2.82-16.43,4.2-31.9,4.24-46.48C87.3,78.87,103.04,74.87,117.47,68.74L117.47,68.74z"/>
	</defs>
	<clipPath id="SVGID_177_">
		<use xlink:href="#SVGID_175_"  style="overflow:visible;"/>
	</clipPath>
	<clipPath id="SVGID_178_" style="clip-path:url(#SVGID_177_);">
		<use xlink:href="#SVGID_176_"  style="overflow:visible;"/>
	</clipPath>
	<g style="clip-path:url(#SVGID_178_);">
		<defs>
			<rect id="SVGID_179_" x="83.3" y="80.21" width="10.56" height="10.56"/>
		</defs>
		<clipPath id="SVGID_180_">
			<use xlink:href="#SVGID_179_"  style="overflow:visible;"/>
		</clipPath>
		<g style="clip-path:url(#SVGID_180_);">
			
				<image style="overflow:visible;" width="28" height="26" xlink:href="94C243CFFB011EC9.png"  transform="matrix(0.48 0 0 -0.48 82.166 92.1289)">
			</image>
		</g>
	</g>
</g>
<g>
	<defs>
		<path id="SVGID_181_" d="M88.59,93.27c2.52-1.29,5.61-0.28,6.9,2.24c1.29,2.52,0.28,5.61-2.24,6.9c-2.52,1.29-5.61,0.28-6.9-2.24
			C85.06,97.64,86.06,94.56,88.59,93.27L88.59,93.27z"/>
	</defs>
	<defs>
		<path id="SVGID_182_" d="M117.47,68.74c0.09,1.31,0.14,2.64,0.14,3.97c0,29.18-22.87,53.02-51.67,54.57
			c2.82-16.43,4.2-31.9,4.24-46.48C87.3,78.87,103.04,74.87,117.47,68.74L117.47,68.74z"/>
	</defs>
	<clipPath id="SVGID_183_">
		<use xlink:href="#SVGID_181_"  style="overflow:visible;"/>
	</clipPath>
	<clipPath id="SVGID_184_" style="clip-path:url(#SVGID_183_);">
		<use xlink:href="#SVGID_182_"  style="overflow:visible;"/>
	</clipPath>
	<g style="clip-path:url(#SVGID_184_);">
		<defs>
			<rect id="SVGID_185_" x="85.7" y="92.69" width="10.56" height="10.32"/>
		</defs>
		<clipPath id="SVGID_186_">
			<use xlink:href="#SVGID_185_"  style="overflow:visible;"/>
		</clipPath>
		<g style="clip-path:url(#SVGID_186_);">
			
				<image style="overflow:visible;" width="28" height="26" xlink:href="94C243CFFB011EC7.png"  transform="matrix(0.48 0 0 -0.48 84.374 104.3164)">
			</image>
		</g>
	</g>
</g>
<g>
	<defs>
		<path id="SVGID_187_" d="M100.43,97.29c2.52-1.29,5.61-0.28,6.9,2.24c1.29,2.52,0.28,5.61-2.24,6.9c-2.52,1.29-5.61,0.28-6.9-2.24
			C96.91,101.67,97.91,98.58,100.43,97.29L100.43,97.29z"/>
	</defs>
	<defs>
		<path id="SVGID_188_" d="M117.47,68.74c0.09,1.31,0.14,2.64,0.14,3.97c0,29.18-22.87,53.02-51.67,54.57
			c2.82-16.43,4.2-31.9,4.24-46.48C87.3,78.87,103.04,74.87,117.47,68.74L117.47,68.74z"/>
	</defs>
	<clipPath id="SVGID_189_">
		<use xlink:href="#SVGID_187_"  style="overflow:visible;"/>
	</clipPath>
	<clipPath id="SVGID_190_" style="clip-path:url(#SVGID_189_);">
		<use xlink:href="#SVGID_188_"  style="overflow:visible;"/>
	</clipPath>
	<g style="clip-path:url(#SVGID_190_);">
		<defs>
			<rect id="SVGID_191_" x="97.46" y="96.53" width="10.56" height="10.56"/>
		</defs>
		<clipPath id="SVGID_192_">
			<use xlink:href="#SVGID_191_"  style="overflow:visible;"/>
		</clipPath>
		<g style="clip-path:url(#SVGID_192_);">
			
				<image style="overflow:visible;" width="28" height="26" xlink:href="94C243CFFB011EF9.png"  transform="matrix(0.48 0 0 -0.48 96.2495 108.2968)">
			</image>
		</g>
	</g>
</g>
<g>
	<defs>
		<path id="SVGID_193_" d="M107.2,76.73c2.52-1.29,5.61-0.28,6.9,2.24c1.29,2.53,0.28,5.61-2.24,6.9c-2.52,1.29-5.61,0.28-6.9-2.24
			C103.68,81.1,104.68,78.01,107.2,76.73L107.2,76.73z"/>
	</defs>
	<defs>
		<path id="SVGID_194_" d="M117.47,68.74c0.09,1.31,0.14,2.64,0.14,3.97c0,29.18-22.87,53.02-51.67,54.57
			c2.82-16.43,4.2-31.9,4.24-46.48C87.3,78.87,103.04,74.87,117.47,68.74L117.47,68.74z"/>
	</defs>
	<clipPath id="SVGID_195_">
		<use xlink:href="#SVGID_193_"  style="overflow:visible;"/>
	</clipPath>
	<clipPath id="SVGID_196_" style="clip-path:url(#SVGID_195_);">
		<use xlink:href="#SVGID_194_"  style="overflow:visible;"/>
	</clipPath>
	<g style="clip-path:url(#SVGID_196_);">
		<defs>
			<rect id="SVGID_197_" x="104.18" y="76.13" width="10.56" height="10.32"/>
		</defs>
		<clipPath id="SVGID_198_">
			<use xlink:href="#SVGID_197_"  style="overflow:visible;"/>
		</clipPath>
		<g style="clip-path:url(#SVGID_198_);">
			
				<image style="overflow:visible;" width="28" height="25" xlink:href="94C243CFFB011EFB.png"  transform="matrix(0.48 0 0 -0.48 103.104 87.5449)">
			</image>
		</g>
	</g>
</g>
<g>
	<defs>
		<path id="SVGID_199_" d="M68.93,90.26c2.52-1.29,5.61-0.28,6.9,2.24c1.29,2.53,0.28,5.61-2.24,6.9c-2.52,1.29-5.61,0.28-6.9-2.24
			C65.4,94.63,66.4,91.54,68.93,90.26L68.93,90.26z"/>
	</defs>
	<defs>
		<path id="SVGID_200_" d="M117.47,68.74c0.09,1.31,0.14,2.64,0.14,3.97c0,29.18-22.87,53.02-51.67,54.57
			c2.82-16.43,4.2-31.9,4.24-46.48C87.3,78.87,103.04,74.87,117.47,68.74L117.47,68.74z"/>
	</defs>
	<clipPath id="SVGID_201_">
		<use xlink:href="#SVGID_199_"  style="overflow:visible;"/>
	</clipPath>
	<clipPath id="SVGID_202_" style="clip-path:url(#SVGID_201_);">
		<use xlink:href="#SVGID_200_"  style="overflow:visible;"/>
	</clipPath>
	<g style="clip-path:url(#SVGID_202_);">
		<defs>
			<rect id="SVGID_203_" x="69.14" y="89.57" width="7.44" height="10.56"/>
		</defs>
		<clipPath id="SVGID_204_">
			<use xlink:href="#SVGID_203_"  style="overflow:visible;"/>
		</clipPath>
		<g style="clip-path:url(#SVGID_204_);">
			
				<image style="overflow:visible;" width="24" height="26" xlink:href="94C243CFFB011EF8.png"  transform="matrix(0.48 0 0 -0.48 67.752 101.3164)">
			</image>
		</g>
	</g>
</g>
<g>
	<defs>
		<path id="SVGID_205_" d="M110.08,89.77c2.07-1.05,4.61-0.23,5.67,1.84c1.06,2.07,0.23,4.61-1.84,5.67
			c-2.07,1.06-4.61,0.23-5.67-1.84C107.18,93.36,108.01,90.82,110.08,89.77L110.08,89.77z"/>
	</defs>
	<defs>
		<path id="SVGID_206_" d="M117.47,68.74c0.09,1.31,0.14,2.64,0.14,3.97c0,29.18-22.87,53.02-51.67,54.57
			c2.82-16.43,4.2-31.9,4.24-46.48C87.3,78.87,103.04,74.87,117.47,68.74L117.47,68.74z"/>
	</defs>
	<clipPath id="SVGID_207_">
		<use xlink:href="#SVGID_205_"  style="overflow:visible;"/>
	</clipPath>
	<clipPath id="SVGID_208_" style="clip-path:url(#SVGID_207_);">
		<use xlink:href="#SVGID_206_"  style="overflow:visible;"/>
	</clipPath>
	<g style="clip-path:url(#SVGID_208_);">
		<defs>
			<rect id="SVGID_209_" x="107.78" y="89.09" width="6.96" height="8.64"/>
		</defs>
		<clipPath id="SVGID_210_">
			<use xlink:href="#SVGID_209_"  style="overflow:visible;"/>
		</clipPath>
		<g style="clip-path:url(#SVGID_210_);">
			
				<image style="overflow:visible;" width="20" height="22" xlink:href="94C243CFFB011EFF.png"  transform="matrix(0.48 0 0 -0.48 106.44 99.1289)">
			</image>
		</g>
	</g>
</g>
<g>
	<defs>
		<path id="SVGID_211_" d="M116.75,69.6c2.07-1.06,4.61-0.23,5.67,1.84c1.06,2.07,0.23,4.61-1.84,5.67
			c-2.07,1.05-4.61,0.23-5.67-1.84C113.85,73.19,114.68,70.65,116.75,69.6L116.75,69.6z"/>
	</defs>
	<defs>
		<path id="SVGID_212_" d="M117.47,68.74c0.09,1.31,0.14,2.64,0.14,3.97c0,29.18-22.87,53.02-51.67,54.57
			c2.82-16.43,4.2-31.9,4.24-46.48C87.3,78.87,103.04,74.87,117.47,68.74L117.47,68.74z"/>
	</defs>
	<clipPath id="SVGID_213_">
		<use xlink:href="#SVGID_211_"  style="overflow:visible;"/>
	</clipPath>
	<clipPath id="SVGID_214_" style="clip-path:url(#SVGID_213_);">
		<use xlink:href="#SVGID_212_"  style="overflow:visible;"/>
	</clipPath>
	<g style="clip-path:url(#SVGID_214_);">
		<defs>
			<rect id="SVGID_215_" x="114.26" y="69.17" width="3.36" height="8.4"/>
		</defs>
		<clipPath id="SVGID_216_">
			<use xlink:href="#SVGID_215_"  style="overflow:visible;"/>
		</clipPath>
		<g style="clip-path:url(#SVGID_216_);">
			
				<image style="overflow:visible;" width="12" height="21" xlink:href="94C243CFFB011EFA.png"  transform="matrix(0.48 0 0 -0.48 113.1934 78.6269)">
			</image>
		</g>
	</g>
</g>
<g>
	<defs>
		<path id="SVGID_217_" d="M95.8,73.5c2.07-1.06,4.61-0.23,5.67,1.84c1.06,2.07,0.23,4.61-1.84,5.67c-2.07,1.05-4.61,0.23-5.67-1.84
			C92.91,77.1,93.73,74.56,95.8,73.5L95.8,73.5z"/>
	</defs>
	<defs>
		<path id="SVGID_218_" d="M117.47,68.74c0.09,1.31,0.14,2.64,0.14,3.97c0,29.18-22.87,53.02-51.67,54.57
			c2.82-16.43,4.2-31.9,4.24-46.48C87.3,78.87,103.04,74.87,117.47,68.74L117.47,68.74z"/>
	</defs>
	<clipPath id="SVGID_219_">
		<use xlink:href="#SVGID_217_"  style="overflow:visible;"/>
	</clipPath>
	<clipPath id="SVGID_220_" style="clip-path:url(#SVGID_219_);">
		<use xlink:href="#SVGID_218_"  style="overflow:visible;"/>
	</clipPath>
	<g style="clip-path:url(#SVGID_220_);">
		<defs>
			<rect id="SVGID_221_" x="93.38" y="74.45" width="8.64" height="7.2"/>
		</defs>
		<clipPath id="SVGID_222_">
			<use xlink:href="#SVGID_221_"  style="overflow:visible;"/>
		</clipPath>
		<g style="clip-path:url(#SVGID_222_);">
			
				<image style="overflow:visible;" width="24" height="19" xlink:href="94C243CFFB011EF6.png"  transform="matrix(0.48 0 0 -0.48 92.1885 82.9804)">
			</image>
		</g>
	</g>
</g>
<g>
	<defs>
		<path id="SVGID_223_" d="M74.81,80.18c2.07-1.06,4.61-0.23,5.67,1.84c1.06,2.07,0.23,4.61-1.84,5.67
			c-2.07,1.06-4.61,0.23-5.67-1.84C71.91,83.77,72.74,81.23,74.81,80.18L74.81,80.18z"/>
	</defs>
	<defs>
		<path id="SVGID_224_" d="M117.47,68.74c0.09,1.31,0.14,2.64,0.14,3.97c0,29.18-22.87,53.02-51.67,54.57
			c2.82-16.43,4.2-31.9,4.24-46.48C87.3,78.87,103.04,74.87,117.47,68.74L117.47,68.74z"/>
	</defs>
	<clipPath id="SVGID_225_">
		<use xlink:href="#SVGID_223_"  style="overflow:visible;"/>
	</clipPath>
	<clipPath id="SVGID_226_" style="clip-path:url(#SVGID_225_);">
		<use xlink:href="#SVGID_224_"  style="overflow:visible;"/>
	</clipPath>
	<g style="clip-path:url(#SVGID_226_);">
		<defs>
			<rect id="SVGID_227_" x="72.5" y="79.73" width="8.64" height="8.64"/>
		</defs>
		<clipPath id="SVGID_228_">
			<use xlink:href="#SVGID_227_"  style="overflow:visible;"/>
		</clipPath>
		<g style="clip-path:url(#SVGID_228_);">
			
				<image style="overflow:visible;" width="24" height="22" xlink:href="94C243CFFB011EF7.png"  transform="matrix(0.48 0 0 -0.48 71.251 89.4609)">
			</image>
		</g>
	</g>
</g>
<g>
	<defs>
		<path id="SVGID_229_" d="M78.06,99.83c2.07-1.06,4.61-0.23,5.67,1.84c1.06,2.07,0.23,4.61-1.84,5.67
			c-2.07,1.06-4.61,0.23-5.67-1.84C75.16,103.42,75.99,100.89,78.06,99.83L78.06,99.83z"/>
	</defs>
	<defs>
		<path id="SVGID_230_" d="M117.47,68.74c0.09,1.31,0.14,2.64,0.14,3.97c0,29.18-22.87,53.02-51.67,54.57
			c2.82-16.43,4.2-31.9,4.24-46.48C87.3,78.87,103.04,74.87,117.47,68.74L117.47,68.74z"/>
	</defs>
	<clipPath id="SVGID_231_">
		<use xlink:href="#SVGID_229_"  style="overflow:visible;"/>
	</clipPath>
	<clipPath id="SVGID_232_" style="clip-path:url(#SVGID_231_);">
		<use xlink:href="#SVGID_230_"  style="overflow:visible;"/>
	</clipPath>
	<g style="clip-path:url(#SVGID_232_);">
		<defs>
			<rect id="SVGID_233_" x="75.62" y="99.17" width="8.64" height="8.64"/>
		</defs>
		<clipPath id="SVGID_234_">
			<use xlink:href="#SVGID_233_"  style="overflow:visible;"/>
		</clipPath>
		<g style="clip-path:url(#SVGID_234_);">
			
				<image style="overflow:visible;" width="24" height="22" xlink:href="94C243CFFB011EC8.png"  transform="matrix(0.48 0 0 -0.48 74.3135 109.1699)">
			</image>
		</g>
	</g>
</g>
<g>
	<defs>
		<path id="SVGID_235_" d="M86.84,118.01c1.76,0.45,2.83,2.24,2.39,4c-0.45,1.76-2.24,2.83-4,2.39c-1.76-0.45-2.83-2.24-2.39-4
			C83.28,118.63,85.07,117.56,86.84,118.01L86.84,118.01z"/>
	</defs>
	<defs>
		<path id="SVGID_236_" d="M117.47,68.74c0.09,1.31,0.14,2.64,0.14,3.97c0,29.18-22.87,53.02-51.67,54.57
			c2.82-16.43,4.2-31.9,4.24-46.48C87.3,78.87,103.04,74.87,117.47,68.74L117.47,68.74z"/>
	</defs>
	<clipPath id="SVGID_237_">
		<use xlink:href="#SVGID_235_"  style="overflow:visible;"/>
	</clipPath>
	<clipPath id="SVGID_238_" style="clip-path:url(#SVGID_237_);">
		<use xlink:href="#SVGID_236_"  style="overflow:visible;"/>
	</clipPath>
	<g style="clip-path:url(#SVGID_238_);">
		<defs>
			<rect id="SVGID_239_" x="82.58" y="117.89" width="6.72" height="5.52"/>
		</defs>
		<clipPath id="SVGID_240_">
			<use xlink:href="#SVGID_239_"  style="overflow:visible;"/>
		</clipPath>
		<g style="clip-path:url(#SVGID_240_);">
			
				<image style="overflow:visible;" width="20" height="16" xlink:href="94C243CFFB011ED4.png"  transform="matrix(0.48 0 0 -0.48 81.2735 124.8125)">
			</image>
		</g>
	</g>
</g>
<g>
	<defs>
		<path id="SVGID_241_" d="M77.15,123.18c1.76,0.45,2.83,2.24,2.39,4c-0.45,1.76-2.24,2.83-4,2.38c-1.76-0.45-2.83-2.24-2.39-4
			C73.6,123.81,75.39,122.74,77.15,123.18L77.15,123.18z"/>
	</defs>
	<defs>
		<path id="SVGID_242_" d="M117.47,68.74c0.09,1.31,0.14,2.64,0.14,3.97c0,29.18-22.87,53.02-51.67,54.57
			c2.82-16.43,4.2-31.9,4.24-46.48C87.3,78.87,103.04,74.87,117.47,68.74L117.47,68.74z"/>
	</defs>
	<clipPath id="SVGID_243_">
		<use xlink:href="#SVGID_241_"  style="overflow:visible;"/>
	</clipPath>
	<clipPath id="SVGID_244_" style="clip-path:url(#SVGID_243_);">
		<use xlink:href="#SVGID_242_"  style="overflow:visible;"/>
	</clipPath>
	<g style="clip-path:url(#SVGID_244_);">
		<defs>
			<rect id="SVGID_245_" x="72.98" y="122.93" width="6.48" height="3.6"/>
		</defs>
		<clipPath id="SVGID_246_">
			<use xlink:href="#SVGID_245_"  style="overflow:visible;"/>
		</clipPath>
		<g style="clip-path:url(#SVGID_246_);">
			
				<image style="overflow:visible;" width="20" height="12" xlink:href="94C243CFFB011ED7.png"  transform="matrix(0.48 0 0 -0.48 71.899 127.8945)">
			</image>
		</g>
	</g>
</g>
<g>
	<defs>
		<path id="SVGID_247_" d="M68.03,115.15c1.76,0.45,2.83,2.24,2.39,4c-0.45,1.76-2.24,2.83-4,2.39c-1.76-0.45-2.83-2.24-2.39-4
			C64.47,115.77,66.26,114.7,68.03,115.15L68.03,115.15z"/>
	</defs>
	<defs>
		<path id="SVGID_248_" d="M117.47,68.74c0.09,1.31,0.14,2.64,0.14,3.97c0,29.18-22.87,53.02-51.67,54.57
			c2.82-16.43,4.2-31.9,4.24-46.48C87.3,78.87,103.04,74.87,117.47,68.74L117.47,68.74z"/>
	</defs>
	<clipPath id="SVGID_249_">
		<use xlink:href="#SVGID_247_"  style="overflow:visible;"/>
	</clipPath>
	<clipPath id="SVGID_250_" style="clip-path:url(#SVGID_249_);">
		<use xlink:href="#SVGID_248_"  style="overflow:visible;"/>
	</clipPath>
	<g style="clip-path:url(#SVGID_250_);">
		<defs>
			<rect id="SVGID_251_" x="66.74" y="115.01" width="3.84" height="6.72"/>
		</defs>
		<clipPath id="SVGID_252_">
			<use xlink:href="#SVGID_251_"  style="overflow:visible;"/>
		</clipPath>
		<g transform="matrix(1 0 0 1 0 7.629395e-06)" style="clip-path:url(#SVGID_252_);">
			
				<image style="overflow:visible;" width="16" height="18" xlink:href="94C243CFFB011ED5.png"  transform="matrix(0.48 0 0 -0.48 65.5679 123.1464)">
			</image>
		</g>
	</g>
</g>
<g>
	<defs>
		<polygon id="SVGID_253_" points="94.52,113.31 96.59,117.91 94.92,118.53 94.93,118.54 92.86,113.83 94.52,113.31 		"/>
	</defs>
	<defs>
		<path id="SVGID_254_" d="M117.47,68.74c0.09,1.31,0.14,2.64,0.14,3.97c0,29.18-22.87,53.02-51.67,54.57
			c2.82-16.43,4.2-31.9,4.24-46.48C87.3,78.87,103.04,74.87,117.47,68.74L117.47,68.74z"/>
	</defs>
	<clipPath id="SVGID_255_">
		<use xlink:href="#SVGID_253_"  style="overflow:visible;"/>
	</clipPath>
	<clipPath id="SVGID_256_" style="clip-path:url(#SVGID_255_);">
		<use xlink:href="#SVGID_254_"  style="overflow:visible;"/>
	</clipPath>
	<g style="clip-path:url(#SVGID_256_);">
		<defs>
			<rect id="SVGID_257_" x="92.66" y="113.09" width="3.36" height="4.56"/>
		</defs>
		<clipPath id="SVGID_258_">
			<use xlink:href="#SVGID_257_"  style="overflow:visible;"/>
		</clipPath>
		<g style="clip-path:url(#SVGID_258_);">
			
				<image style="overflow:visible;" width="12" height="13" xlink:href="94C243CFFB011ED4.jpg"  transform="matrix(0.48 0 0 -0.48 91.4014 118.707)">
			</image>
		</g>
	</g>
</g>
<g>
	<defs>
		<path id="SVGID_259_" d="M88.22,111.62c-0.45-2.28,1.04-4.5,3.33-4.94c2.28-0.45,4.5,1.04,4.94,3.33c0.45,2.28-1.04,4.5-3.33,4.94
			C90.88,115.39,88.67,113.9,88.22,111.62L88.22,111.62z"/>
	</defs>
	<defs>
		<path id="SVGID_260_" d="M117.47,68.74c0.09,1.31,0.14,2.64,0.14,3.97c0,29.18-22.87,53.02-51.67,54.57
			c2.82-16.43,4.2-31.9,4.24-46.48C87.3,78.87,103.04,74.87,117.47,68.74L117.47,68.74z"/>
	</defs>
	<clipPath id="SVGID_261_">
		<use xlink:href="#SVGID_259_"  style="overflow:visible;"/>
	</clipPath>
	<clipPath id="SVGID_262_" style="clip-path:url(#SVGID_261_);">
		<use xlink:href="#SVGID_260_"  style="overflow:visible;"/>
	</clipPath>
	<g style="clip-path:url(#SVGID_262_);">
		<defs>
			<rect id="SVGID_263_" x="88.1" y="106.61" width="8.4" height="8.4"/>
		</defs>
		<clipPath id="SVGID_264_">
			<use xlink:href="#SVGID_263_"  style="overflow:visible;"/>
		</clipPath>
		<g style="clip-path:url(#SVGID_264_);">
			
				<image style="overflow:visible;" width="24" height="22" xlink:href="94C243CFFB011F2C.png"  transform="matrix(0.48 0 0 -0.48 86.9805 116.3359)">
			</image>
		</g>
	</g>
</g>
<g>
	<defs>
		<polygon id="SVGID_265_" points="76.48,119.85 75.61,124.82 77.38,125.01 77.38,125.03 78.22,119.95 76.48,119.85 		"/>
	</defs>
	<defs>
		<path id="SVGID_266_" d="M117.47,68.74c0.09,1.31,0.14,2.64,0.14,3.97c0,29.18-22.87,53.02-51.67,54.57
			c2.82-16.43,4.2-31.9,4.24-46.48C87.3,78.87,103.04,74.87,117.47,68.74L117.47,68.74z"/>
	</defs>
	<clipPath id="SVGID_267_">
		<use xlink:href="#SVGID_265_"  style="overflow:visible;"/>
	</clipPath>
	<clipPath id="SVGID_268_" style="clip-path:url(#SVGID_267_);">
		<use xlink:href="#SVGID_266_"  style="overflow:visible;"/>
	</clipPath>
	<g style="clip-path:url(#SVGID_268_);">
		<defs>
			<rect id="SVGID_269_" x="75.38" y="119.81" width="2.88" height="5.28"/>
		</defs>
		<clipPath id="SVGID_270_">
			<use xlink:href="#SVGID_269_"  style="overflow:visible;"/>
		</clipPath>
		<g style="clip-path:url(#SVGID_270_);">
			
				<image style="overflow:visible;" width="12" height="15" xlink:href="94C243CFFB011F2C.jpg"  transform="matrix(0.48 0 0 -0.48 74.1309 126.2285)">
			</image>
		</g>
	</g>
</g>
<g>
	<defs>
		<polygon id="SVGID_271_" points="73.98,116.68 68.96,117.17 69.25,118.92 69.23,118.93 74.34,118.38 73.98,116.68 		"/>
	</defs>
	<defs>
		<path id="SVGID_272_" d="M117.47,68.74c0.09,1.31,0.14,2.64,0.14,3.97c0,29.18-22.87,53.02-51.67,54.57
			c2.82-16.43,4.2-31.9,4.24-46.48C87.3,78.87,103.04,74.87,117.47,68.74L117.47,68.74z"/>
	</defs>
	<clipPath id="SVGID_273_">
		<use xlink:href="#SVGID_271_"  style="overflow:visible;"/>
	</clipPath>
	<clipPath id="SVGID_274_" style="clip-path:url(#SVGID_273_);">
		<use xlink:href="#SVGID_272_"  style="overflow:visible;"/>
	</clipPath>
	<g style="clip-path:url(#SVGID_274_);">
		<defs>
			<rect id="SVGID_275_" x="68.9" y="116.45" width="5.52" height="2.64"/>
		</defs>
		<clipPath id="SVGID_276_">
			<use xlink:href="#SVGID_275_"  style="overflow:visible;"/>
		</clipPath>
		<g style="clip-path:url(#SVGID_276_);">
			
				<image style="overflow:visible;" width="20" height="10" xlink:href="94C243CFFB011F2D.jpg"  transform="matrix(0.48 0 0 -0.48 67.6079 120.4355)">
			</image>
		</g>
	</g>
</g>
<g>
	<defs>
		<path id="SVGID_277_" d="M75.65,112.12c2.52-1.29,5.61-0.28,6.9,2.24c1.29,2.53,0.28,5.61-2.24,6.9c-2.52,1.29-5.61,0.28-6.9-2.24
			C72.13,116.49,73.13,113.4,75.65,112.12L75.65,112.12z"/>
	</defs>
	<defs>
		<path id="SVGID_278_" d="M117.47,68.74c0.09,1.31,0.14,2.64,0.14,3.97c0,29.18-22.87,53.02-51.67,54.57
			c2.82-16.43,4.2-31.9,4.24-46.48C87.3,78.87,103.04,74.87,117.47,68.74L117.47,68.74z"/>
	</defs>
	<clipPath id="SVGID_279_">
		<use xlink:href="#SVGID_277_"  style="overflow:visible;"/>
	</clipPath>
	<clipPath id="SVGID_280_" style="clip-path:url(#SVGID_279_);">
		<use xlink:href="#SVGID_278_"  style="overflow:visible;"/>
	</clipPath>
	<g style="clip-path:url(#SVGID_280_);">
		<defs>
			<rect id="SVGID_281_" x="72.74" y="111.41" width="10.56" height="10.56"/>
		</defs>
		<clipPath id="SVGID_282_">
			<use xlink:href="#SVGID_281_"  style="overflow:visible;"/>
		</clipPath>
		<g style="clip-path:url(#SVGID_282_);">
			
				<image style="overflow:visible;" width="28" height="26" xlink:href="94C243CFFB011F33.png"  transform="matrix(0.48 0 0 -0.48 71.395 123.2343)">
			</image>
		</g>
	</g>
</g>
<g>
	<defs>
		<polygon id="SVGID_283_" points="40.72,0.89 131.55,0.89 133.55,91.26 42.72,91.26 40.72,0.89 		"/>
	</defs>
	<defs>
		<path id="SVGID_284_" d="M62.96,18.06c24.76,0,45.67,16.46,52.39,39.04c-13.44,7.3-28.49,12.68-45.27,16.03
			c-0.6-20-3.79-38.27-9.29-55.02C61.51,18.08,62.23,18.06,62.96,18.06L62.96,18.06z"/>
	</defs>
	<clipPath id="SVGID_285_">
		<use xlink:href="#SVGID_283_"  style="overflow:visible;"/>
	</clipPath>
	<clipPath id="SVGID_286_" style="clip-path:url(#SVGID_285_);">
		<use xlink:href="#SVGID_284_"  style="overflow:visible;"/>
	</clipPath>
	<g style="clip-path:url(#SVGID_286_);">
		<defs>
			<rect id="SVGID_287_" x="60.74" y="18.05" width="54.72" height="55.2"/>
		</defs>
		<clipPath id="SVGID_288_">
			<use xlink:href="#SVGID_287_"  style="overflow:visible;"/>
		</clipPath>
		<g style="clip-path:url(#SVGID_288_);">
			
				<image style="overflow:visible;" width="120" height="119" xlink:href="94C243CFFB011F34.jpg"  transform="matrix(0.48 0 0 -0.48 59.3565 74.2929)">
			</image>
		</g>
	</g>
</g>
<g>
	<defs>
		<path id="SVGID_289_" d="M62.96,18.06c24.76,0,45.67,16.46,52.39,39.04c-13.44,7.3-28.49,12.68-45.27,16.03
			c-0.6-20-3.79-38.27-9.29-55.02C61.51,18.08,62.23,18.06,62.96,18.06L62.96,18.06z"/>
	</defs>
	<clipPath id="SVGID_290_">
		<use xlink:href="#SVGID_289_"  style="overflow:visible;"/>
	</clipPath>
	<polygon style="clip-path:url(#SVGID_290_);fill:none;stroke:#383436;stroke-width:0.5669;stroke-miterlimit:22.9256;" points="
		40.72,0.89 131.55,0.89 133.55,91.26 42.72,91.26 40.72,0.89 	"/>
	<path style="clip-path:url(#SVGID_290_);fill-rule:evenodd;clip-rule:evenodd;fill:#FBD1A2;" d="M80.44,37.21
		c5.48-16.13,2.84-29-5.99-37.07C73.56,0.1,72.67,0.05,71.78,0c6.11,4.59,11.24,11.57,11.41,20.93
		C82.94,27.23,81.78,32.35,80.44,37.21L80.44,37.21z"/>
</g>
<g>
	<defs>
		<path id="SVGID_291_" d="M77.4,67.33c0.28,0.32,0.56,0.64,0.84,0.96c-4.36-3.37-5.9-8.56-5.63-14.9c0.1-2.33,0.4-4.33,0.9-6.59
			c1.25-5.56,2.92-11.1,4.4-16.82c1-3.88,1.69-7.04,1.98-11.05c0.57-7.93-2.69-12.46-4.68-15.66c8.8,9.95,8.24,23.04,5.34,33.46
			c-0.05,0.17-0.08,0.34-0.11,0.52c-0.25,0.74-0.51,1.47-0.79,2.22C75.86,51.86,73.91,62.38,77.4,67.33L77.4,67.33z"/>
	</defs>
	<defs>
		<path id="SVGID_292_" d="M62.96,18.06c24.76,0,45.67,16.46,52.39,39.04c-13.44,7.3-28.49,12.68-45.27,16.03
			c-0.6-20-3.79-38.27-9.29-55.02C61.51,18.08,62.23,18.06,62.96,18.06L62.96,18.06z"/>
	</defs>
	<clipPath id="SVGID_293_">
		<use xlink:href="#SVGID_291_"  style="overflow:visible;"/>
	</clipPath>
	<clipPath id="SVGID_294_" style="clip-path:url(#SVGID_293_);">
		<use xlink:href="#SVGID_292_"  style="overflow:visible;"/>
	</clipPath>
	<g style="clip-path:url(#SVGID_294_);">
		<defs>
			<rect id="SVGID_295_" x="72.5" y="20.45" width="10.8" height="48"/>
		</defs>
		<clipPath id="SVGID_296_">
			<use xlink:href="#SVGID_295_"  style="overflow:visible;"/>
		</clipPath>
		<g style="clip-path:url(#SVGID_296_);">
			
				<image style="overflow:visible;" width="28" height="104" xlink:href="94C243CFFB011F37.jpg"  transform="matrix(0.48 0 0 -0.48 71.3325 69.8281)">
			</image>
		</g>
	</g>
</g>
<g>
	<defs>
		<path id="SVGID_297_" d="M62.96,18.06c24.76,0,45.67,16.46,52.39,39.04c-13.44,7.3-28.49,12.68-45.27,16.03
			c-0.6-20-3.79-38.27-9.29-55.02C61.51,18.08,62.23,18.06,62.96,18.06L62.96,18.06z"/>
	</defs>
	<clipPath id="SVGID_298_">
		<use xlink:href="#SVGID_297_"  style="overflow:visible;"/>
	</clipPath>
	<path style="clip-path:url(#SVGID_298_);fill-rule:evenodd;clip-rule:evenodd;fill:#FBD1A2;" d="M83.57,25.28
		c1.15-8.81-1.66-17.36-7.43-25.23c-0.54,0.01-1.23,0.01-1.77,0.02C81.96,7.24,84.68,16.05,83.57,25.28L83.57,25.28z"/>
</g>
<g>
	<defs>
		<path id="SVGID_299_" d="M102.61,105.36c-2.76-5.32-3.37-11.28-2.79-17.6c0.76-5.8,2.47-11.85,4.43-17.98
			c2.62-8.03,4.44-15.43,2.55-19.88c-0.52-1.59-1.51-2.96-2.78-4.23c1.81,5.47-0.51,13.9-3.52,22.83c-1.05,3.11-1.8,5.45-2.44,8.69
			c-0.41,2.07-0.75,4.14-1,6.22c-0.44,3.65-0.53,6.33,0.1,9.96C97.98,98.15,99.73,102.2,102.61,105.36L102.61,105.36z"/>
	</defs>
	<defs>
		<path id="SVGID_300_" d="M62.96,18.06c24.76,0,45.67,16.46,52.39,39.04c-13.44,7.3-28.49,12.68-45.27,16.03
			c-0.6-20-3.79-38.27-9.29-55.02C61.51,18.08,62.23,18.06,62.96,18.06L62.96,18.06z"/>
	</defs>
	<clipPath id="SVGID_301_">
		<use xlink:href="#SVGID_299_"  style="overflow:visible;"/>
	</clipPath>
	<clipPath id="SVGID_302_" style="clip-path:url(#SVGID_301_);">
		<use xlink:href="#SVGID_300_"  style="overflow:visible;"/>
	</clipPath>
	<g style="clip-path:url(#SVGID_302_);">
		<defs>
			<rect id="SVGID_303_" x="102.02" y="45.65" width="5.76" height="17.76"/>
		</defs>
		<clipPath id="SVGID_304_">
			<use xlink:href="#SVGID_303_"  style="overflow:visible;"/>
		</clipPath>
		<g style="clip-path:url(#SVGID_304_);">
			
				<image style="overflow:visible;" width="20" height="41" xlink:href="94C243CFFB011F13.jpg"  transform="matrix(0.48 0 0 -0.48 100.7324 64.5097)">
			</image>
		</g>
	</g>
</g>
<g>
	<defs>
		<path id="SVGID_305_" d="M56.71,30.25c7.54-3.28,15.08-6.57,22.63-9.85c0.09-0.04,0.37-0.16,0.69-0.29
			c0.2-0.08,0.39-0.17,0.58-0.26c0.63-0.27,1.35-0.55,1.63,0.25c0.06,0.16,0.02,0.49-0.12,0.69c-0.26,0.38-0.88,0.67-1.89,1.11
			c-7.65,3.36-15.3,6.71-22.95,10.07C57.09,31.4,56.9,30.83,56.71,30.25L56.71,30.25z"/>
	</defs>
	<defs>
		<path id="SVGID_306_" d="M62.96,18.06c24.76,0,45.67,16.46,52.39,39.04c-13.44,7.3-28.49,12.68-45.27,16.03
			c-0.6-20-3.79-38.27-9.29-55.02C61.51,18.08,62.23,18.06,62.96,18.06L62.96,18.06z"/>
	</defs>
	<clipPath id="SVGID_307_">
		<use xlink:href="#SVGID_305_"  style="overflow:visible;"/>
	</clipPath>
	<clipPath id="SVGID_308_" style="clip-path:url(#SVGID_307_);">
		<use xlink:href="#SVGID_306_"  style="overflow:visible;"/>
	</clipPath>
	<g style="clip-path:url(#SVGID_308_);">
		<defs>
			<rect id="SVGID_309_" x="63.38" y="20.45" width="18.24" height="8.88"/>
		</defs>
		<clipPath id="SVGID_310_">
			<use xlink:href="#SVGID_309_"  style="overflow:visible;"/>
		</clipPath>
		<g transform="matrix(1 0 0 1 -3.814697e-06 0)" style="clip-path:url(#SVGID_310_);">
			
				<image style="overflow:visible;" width="44" height="22" xlink:href="94C243CFFB011F11.jpg"  transform="matrix(0.48 0 0 -0.48 62.2847 30.3769)">
			</image>
		</g>
	</g>
</g>
<g>
	<defs>
		<path id="SVGID_311_" d="M51.01,27.21c7.26-3.87,20.16-10.97,27.42-14.84c0.09-0.05,0.35-0.18,0.67-0.34
			c0.19-0.09,0.37-0.2,0.56-0.3c0.61-0.32,1.3-0.66,1.64,0.12c0.07,0.15,0.06,0.49-0.07,0.7c-0.23,0.4-0.82,0.74-1.79,1.26
			c-7.36,3.95-20.36,11.12-27.72,15.08C51.48,28.33,51.24,27.77,51.01,27.21L51.01,27.21z"/>
	</defs>
	<defs>
		<path id="SVGID_312_" d="M62.96,18.06c24.76,0,45.67,16.46,52.39,39.04c-13.44,7.3-28.49,12.68-45.27,16.03
			c-0.6-20-3.79-38.27-9.29-55.02C61.51,18.08,62.23,18.06,62.96,18.06L62.96,18.06z"/>
	</defs>
	<clipPath id="SVGID_313_">
		<use xlink:href="#SVGID_311_"  style="overflow:visible;"/>
	</clipPath>
	<clipPath id="SVGID_314_" style="clip-path:url(#SVGID_313_);">
		<use xlink:href="#SVGID_312_"  style="overflow:visible;"/>
	</clipPath>
	<g style="clip-path:url(#SVGID_314_);">
		<defs>
			<rect id="SVGID_315_" x="61.7" y="18.05" width="9.12" height="5.28"/>
		</defs>
		<clipPath id="SVGID_316_">
			<use xlink:href="#SVGID_315_"  style="overflow:visible;"/>
		</clipPath>
		<g style="clip-path:url(#SVGID_316_);">
			
				<image style="overflow:visible;" width="24" height="15" xlink:href="94C243CFFB011F17.jpg"  transform="matrix(0.48 0 0 -0.48 60.48 24.3535)">
			</image>
		</g>
	</g>
</g>
<g>
	<defs>
		<path id="SVGID_317_" d="M61.55,33.36c7.93-2.18,8.48-2.27,16.41-4.45c0.1-0.03,0.39-0.1,0.72-0.18c0.21-0.05,0.41-0.12,0.61-0.17
			c0.66-0.18,1.41-0.36,1.58,0.47c0.03,0.16-0.05,0.49-0.22,0.67c-0.31,0.34-0.97,0.54-2.03,0.83c-8.05,2.24-8.71,2.38-16.76,4.62
			C61.77,34.54,61.66,33.95,61.55,33.36L61.55,33.36z"/>
	</defs>
	<defs>
		<path id="SVGID_318_" d="M62.96,18.06c24.76,0,45.67,16.46,52.39,39.04c-13.44,7.3-28.49,12.68-45.27,16.03
			c-0.6-20-3.79-38.27-9.29-55.02C61.51,18.08,62.23,18.06,62.96,18.06L62.96,18.06z"/>
	</defs>
	<clipPath id="SVGID_319_">
		<use xlink:href="#SVGID_317_"  style="overflow:visible;"/>
	</clipPath>
	<clipPath id="SVGID_320_" style="clip-path:url(#SVGID_319_);">
		<use xlink:href="#SVGID_318_"  style="overflow:visible;"/>
	</clipPath>
	<g style="clip-path:url(#SVGID_320_);">
		<defs>
			<rect id="SVGID_321_" x="64.58" y="28.37" width="16.32" height="6"/>
		</defs>
		<clipPath id="SVGID_322_">
			<use xlink:href="#SVGID_321_"  style="overflow:visible;"/>
		</clipPath>
		<g style="clip-path:url(#SVGID_322_);">
			
				<image style="overflow:visible;" width="40" height="17" xlink:href="94C243CFFB011F12.jpg"  transform="matrix(0.48 0 0 -0.48 63.3697 35.6679)">
			</image>
		</g>
	</g>
</g>
<g>
	<defs>
		<path id="SVGID_323_" d="M103.4,44.33C96.42,48.69,84.03,56.64,77.05,61c-0.09,0.05-0.34,0.21-0.64,0.38
			c-0.18,0.11-0.36,0.23-0.53,0.34c-0.58,0.36-1.25,0.74-1.65,0c-0.08-0.15-0.09-0.48,0.02-0.7c0.2-0.41,0.77-0.79,1.7-1.38
			c7.07-4.45,19.56-12.48,26.63-16.93C102.86,43.25,103.13,43.79,103.4,44.33L103.4,44.33z"/>
	</defs>
	<defs>
		<path id="SVGID_324_" d="M62.96,18.06c24.76,0,45.67,16.46,52.39,39.04c-13.44,7.3-28.49,12.68-45.27,16.03
			c-0.6-20-3.79-38.27-9.29-55.02C61.51,18.08,62.23,18.06,62.96,18.06L62.96,18.06z"/>
	</defs>
	<clipPath id="SVGID_325_">
		<use xlink:href="#SVGID_323_"  style="overflow:visible;"/>
	</clipPath>
	<clipPath id="SVGID_326_" style="clip-path:url(#SVGID_325_);">
		<use xlink:href="#SVGID_324_"  style="overflow:visible;"/>
	</clipPath>
	<g style="clip-path:url(#SVGID_326_);">
		<defs>
			<rect id="SVGID_327_" x="74.18" y="42.53" width="29.28" height="19.68"/>
		</defs>
		<clipPath id="SVGID_328_">
			<use xlink:href="#SVGID_327_"  style="overflow:visible;"/>
		</clipPath>
		<g transform="matrix(1 0 0 1 0 -3.814697e-06)" style="clip-path:url(#SVGID_328_);">
			
				<image style="overflow:visible;" width="68" height="45" xlink:href="94C243CFFB011F1D.jpg"  transform="matrix(0.48 0 0 -0.48 73.1709 63.3867)">
			</image>
		</g>
	</g>
</g>
<g>
	<defs>
		<path id="SVGID_329_" d="M90.31,36.26c-6.56,4.96-5.78,4.32-12.34,9.29c-0.08,0.06-0.32,0.24-0.6,0.44
			c-0.17,0.12-0.34,0.26-0.5,0.38c-0.55,0.41-1.18,0.85-1.64,0.14c-0.09-0.14-0.13-0.47-0.04-0.7c0.17-0.43,0.7-0.86,1.57-1.52
			c6.65-5.06,5.95-4.51,12.6-9.57C89.68,35.23,90,35.74,90.31,36.26L90.31,36.26z"/>
	</defs>
	<defs>
		<path id="SVGID_330_" d="M62.96,18.06c24.76,0,45.67,16.46,52.39,39.04c-13.44,7.3-28.49,12.68-45.27,16.03
			c-0.6-20-3.79-38.27-9.29-55.02C61.51,18.08,62.23,18.06,62.96,18.06L62.96,18.06z"/>
	</defs>
	<clipPath id="SVGID_331_">
		<use xlink:href="#SVGID_329_"  style="overflow:visible;"/>
	</clipPath>
	<clipPath id="SVGID_332_" style="clip-path:url(#SVGID_331_);">
		<use xlink:href="#SVGID_330_"  style="overflow:visible;"/>
	</clipPath>
	<g style="clip-path:url(#SVGID_332_);">
		<defs>
			<rect id="SVGID_333_" x="75.14" y="34.61" width="15.36" height="12.48"/>
		</defs>
		<clipPath id="SVGID_334_">
			<use xlink:href="#SVGID_333_"  style="overflow:visible;"/>
		</clipPath>
		<g style="clip-path:url(#SVGID_334_);">
			
				<image style="overflow:visible;" width="40" height="30" xlink:href="94C243CFFB011F1E.jpg"  transform="matrix(0.48 0 0 -0.48 73.8911 48.2773)">
			</image>
		</g>
	</g>
</g>
<g>
	<defs>
		<path id="SVGID_335_" d="M97.46,40.08c-6.9,4.48-13.79,8.97-20.69,13.46c-0.08,0.05-0.34,0.21-0.63,0.39
			c-0.18,0.11-0.36,0.23-0.53,0.35c-0.58,0.37-1.24,0.77-1.65,0.03c-0.08-0.15-0.1-0.48,0.01-0.7c0.2-0.42,0.76-0.81,1.68-1.41
			c6.99-4.57,13.98-9.15,20.97-13.72C96.9,39.01,97.18,39.55,97.46,40.08L97.46,40.08z"/>
	</defs>
	<defs>
		<path id="SVGID_336_" d="M62.96,18.06c24.76,0,45.67,16.46,52.39,39.04c-13.44,7.3-28.49,12.68-45.27,16.03
			c-0.6-20-3.79-38.27-9.29-55.02C61.51,18.08,62.23,18.06,62.96,18.06L62.96,18.06z"/>
	</defs>
	<clipPath id="SVGID_337_">
		<use xlink:href="#SVGID_335_"  style="overflow:visible;"/>
	</clipPath>
	<clipPath id="SVGID_338_" style="clip-path:url(#SVGID_337_);">
		<use xlink:href="#SVGID_336_"  style="overflow:visible;"/>
	</clipPath>
	<g style="clip-path:url(#SVGID_338_);">
		<defs>
			<rect id="SVGID_339_" x="73.94" y="38.45" width="23.76" height="16.32"/>
		</defs>
		<clipPath id="SVGID_340_">
			<use xlink:href="#SVGID_339_"  style="overflow:visible;"/>
		</clipPath>
		<g style="clip-path:url(#SVGID_340_);">
			
				<image style="overflow:visible;" width="56" height="38" xlink:href="94C243CFFB011F1F.jpg"  transform="matrix(0.48 0 0 -0.48 72.5708 56.0722)">
			</image>
		</g>
	</g>
</g>
<g>
	<defs>
		<path id="SVGID_341_" d="M76.29,66.96c7.3-4.72,20.25-13.33,27.55-18.04c0.09-0.06,0.36-0.22,0.67-0.41
			c0.19-0.12,0.38-0.25,0.56-0.37c0.61-0.39,1.31-0.81,1.74-0.02c0.09,0.15,0.1,0.51-0.01,0.74c-0.21,0.44-0.8,0.85-1.78,1.48
			c-7.4,4.81-20.45,13.51-27.85,18.32C76.89,68.09,76.59,67.53,76.29,66.96L76.29,66.96z"/>
	</defs>
	<defs>
		<path id="SVGID_342_" d="M62.96,18.06c24.76,0,45.67,16.46,52.39,39.04c-13.44,7.3-28.49,12.68-45.27,16.03
			c-0.6-20-3.79-38.27-9.29-55.02C61.51,18.08,62.23,18.06,62.96,18.06L62.96,18.06z"/>
	</defs>
	<clipPath id="SVGID_343_">
		<use xlink:href="#SVGID_341_"  style="overflow:visible;"/>
	</clipPath>
	<clipPath id="SVGID_344_" style="clip-path:url(#SVGID_343_);">
		<use xlink:href="#SVGID_342_"  style="overflow:visible;"/>
	</clipPath>
	<g style="clip-path:url(#SVGID_344_);">
		<defs>
			<rect id="SVGID_345_" x="76.1" y="47.57" width="30.72" height="21.12"/>
		</defs>
		<clipPath id="SVGID_346_">
			<use xlink:href="#SVGID_345_"  style="overflow:visible;"/>
		</clipPath>
		<g style="clip-path:url(#SVGID_346_);">
			
				<image style="overflow:visible;" width="72" height="48" xlink:href="94C243CFFB011F14.jpg"  transform="matrix(0.48 0 0 -0.48 75.024 69.7422)">
			</image>
		</g>
	</g>
</g>
<g>
	<defs>
		<path id="SVGID_347_" d="M82.53,71.74c6.55-4.97,14.74-11.22,21.29-16.19c0.08-0.06,0.32-0.24,0.6-0.44
			c0.17-0.12,0.34-0.26,0.5-0.38c0.55-0.41,1.18-0.86,1.64-0.15c0.09,0.14,0.13,0.47,0.04,0.7c-0.17,0.43-0.7,0.86-1.57,1.53
			c-6.64,5.07-14.91,11.4-21.55,16.47C83.17,72.77,82.85,72.25,82.53,71.74L82.53,71.74z"/>
	</defs>
	<defs>
		<path id="SVGID_348_" d="M62.96,18.06c24.76,0,45.67,16.46,52.39,39.04c-13.44,7.3-28.49,12.68-45.27,16.03
			c-0.6-20-3.79-38.27-9.29-55.02C61.51,18.08,62.23,18.06,62.96,18.06L62.96,18.06z"/>
	</defs>
	<clipPath id="SVGID_349_">
		<use xlink:href="#SVGID_347_"  style="overflow:visible;"/>
	</clipPath>
	<clipPath id="SVGID_350_" style="clip-path:url(#SVGID_349_);">
		<use xlink:href="#SVGID_348_"  style="overflow:visible;"/>
	</clipPath>
	<g style="clip-path:url(#SVGID_350_);">
		<defs>
			<rect id="SVGID_351_" x="85.46" y="54.05" width="21.36" height="15.36"/>
		</defs>
		<clipPath id="SVGID_352_">
			<use xlink:href="#SVGID_351_"  style="overflow:visible;"/>
		</clipPath>
		<g style="clip-path:url(#SVGID_352_);">
			
				<image style="overflow:visible;" width="52" height="36" xlink:href="94C243CFFB011F15.jpg"  transform="matrix(0.48 0 0 -0.48 84.1773 70.6543)">
			</image>
		</g>
	</g>
</g>
<g>
	<defs>
		<path id="SVGID_353_" d="M91.53,74.76c5.54-6.08,5.73-6.11,11.27-12.19c0.07-0.07,0.27-0.29,0.51-0.54
			c0.15-0.15,0.28-0.32,0.42-0.47c0.46-0.51,1-1.05,1.59-0.44c0.12,0.12,0.22,0.44,0.17,0.68c-0.08,0.45-0.53,0.97-1.27,1.79
			c-5.61,6.19-5.87,6.32-11.48,12.52C92.35,75.65,91.94,75.2,91.53,74.76L91.53,74.76z"/>
	</defs>
	<defs>
		<path id="SVGID_354_" d="M62.96,18.06c24.76,0,45.67,16.46,52.39,39.04c-13.44,7.3-28.49,12.68-45.27,16.03
			c-0.6-20-3.79-38.27-9.29-55.02C61.51,18.08,62.23,18.06,62.96,18.06L62.96,18.06z"/>
	</defs>
	<clipPath id="SVGID_355_">
		<use xlink:href="#SVGID_353_"  style="overflow:visible;"/>
	</clipPath>
	<clipPath id="SVGID_356_" style="clip-path:url(#SVGID_355_);">
		<use xlink:href="#SVGID_354_"  style="overflow:visible;"/>
	</clipPath>
	<g style="clip-path:url(#SVGID_356_);">
		<defs>
			<rect id="SVGID_357_" x="101.78" y="60.77" width="3.84" height="2.88"/>
		</defs>
		<clipPath id="SVGID_358_">
			<use xlink:href="#SVGID_357_"  style="overflow:visible;"/>
		</clipPath>
		<g style="clip-path:url(#SVGID_358_);">
			
				<image style="overflow:visible;" width="16" height="10" xlink:href="94C243CFFB011F16.jpg"  transform="matrix(0.48 0 0 -0.48 100.5884 64.664)">
			</image>
		</g>
	</g>
</g>
<g>
	<defs>
		<path id="SVGID_359_" d="M62.96,18.06c24.76,0,45.67,16.46,52.39,39.04c-13.44,7.3-28.49,12.68-45.27,16.03
			c-0.6-20-3.79-38.27-9.29-55.02C61.51,18.08,62.23,18.06,62.96,18.06L62.96,18.06z"/>
	</defs>
	<clipPath id="SVGID_360_">
		<use xlink:href="#SVGID_359_"  style="overflow:visible;"/>
	</clipPath>
	<path style="clip-path:url(#SVGID_360_);fill-rule:evenodd;clip-rule:evenodd;fill:#FBD1A2;" d="M108.14,77.45
		C94.46,76.18,82.5,73.54,76.2,66.41c-4.23-5.4-4.39-13.23-1.82-23c0.38-1.59,0.76-3.19,1.14-4.78c-1.47,4.66-3.3,9.26-3.7,14.07
		c-0.59,6.91,0.04,11.79,5.31,16.47C83.12,74.51,94.42,76.7,108.14,77.45L108.14,77.45z"/>
</g>
<g>
	<defs>
		<path id="SVGID_361_" d="M49.68,30.41c0.07-0.88,0.14-1.75,0.22-2.63c12.58,4.33,26.93,2.83,42.31,7.34
			c8.34,1.91,14.7,7.34,16,14.55c-1.77-5.44-7.83-8.96-18.68-10.49c-8.81-1.06-17.61-2.13-26.42-3.2
			C57.87,34.95,53.04,33.49,49.68,30.41L49.68,30.41z"/>
	</defs>
	<defs>
		<path id="SVGID_362_" d="M62.96,18.06c24.76,0,45.67,16.46,52.39,39.04c-13.44,7.3-28.49,12.68-45.27,16.03
			c-0.6-20-3.79-38.27-9.29-55.02C61.51,18.08,62.23,18.06,62.96,18.06L62.96,18.06z"/>
	</defs>
	<clipPath id="SVGID_363_">
		<use xlink:href="#SVGID_361_"  style="overflow:visible;"/>
	</clipPath>
	<clipPath id="SVGID_364_" style="clip-path:url(#SVGID_363_);">
		<use xlink:href="#SVGID_362_"  style="overflow:visible;"/>
	</clipPath>
	<g style="clip-path:url(#SVGID_364_);">
		<defs>
			<rect id="SVGID_365_" x="64.34" y="30.53" width="43.92" height="19.2"/>
		</defs>
		<clipPath id="SVGID_366_">
			<use xlink:href="#SVGID_365_"  style="overflow:visible;"/>
		</clipPath>
		<g style="clip-path:url(#SVGID_366_);">
			
				<image style="overflow:visible;" width="96" height="44" xlink:href="94C243CFFB011F7A.jpg"  transform="matrix(0.48 0 0 -0.48 63.2207 50.7832)">
			</image>
		</g>
	</g>
</g>
<g>
	<defs>
		<path id="SVGID_367_" d="M62.96,18.06c24.76,0,45.67,16.46,52.39,39.04c-13.44,7.3-28.49,12.68-45.27,16.03
			c-0.6-20-3.79-38.27-9.29-55.02C61.51,18.08,62.23,18.06,62.96,18.06L62.96,18.06z"/>
	</defs>
	<clipPath id="SVGID_368_">
		<use xlink:href="#SVGID_367_"  style="overflow:visible;"/>
	</clipPath>
	<path style="clip-path:url(#SVGID_368_);fill-rule:evenodd;clip-rule:evenodd;fill:#FBD1A2;" d="M104.73,68.4
		c1.85-6.42,3.87-12.9,2.26-18.06c-1.81-5.71-8-8.3-15.32-10.09c-3.75-0.92-7.51-1.53-11.27-2.19c6.09,0.67,12.2,1.14,18.11,3.22
		c5.4,2.09,9.91,4.96,10.06,11.53C108.53,58.21,106.61,63.3,104.73,68.4L104.73,68.4z"/>
	<path style="clip-path:url(#SVGID_368_);fill-rule:evenodd;clip-rule:evenodd;fill:#FBD1A2;" d="M122.32,117.25
		c0.05-0.29,0.11-0.58,0.16-0.87c-7.94-1.95-14.01-5.05-18.3-9.26c-6.08-6.08-8.66-14.33-6.93-25.28c0.73-5.02,1.79-9.36,3.14-13.12
		c-3.13,8.78-5.69,17.65-3.93,27.18c1.58,6.77,5.33,12.12,11.48,15.9C112.62,114.63,117.44,116.27,122.32,117.25L122.32,117.25z"/>
</g>
<g>
	<defs>
		<path id="SVGID_369_" d="M76.66,68.76c-3.11-2.83-3.73-5.11-4.4-7.31c1.14,7.12,5.88,12.61,14.43,16.35
			c10.15,4.44,22.5,4.06,33.51,5.49c4.07,0.53,7.17,1.12,8.2,1.83c4.02,1.8,2.05,6.58,0.43,10.97c2.36-4.35,3.95-8.5,2.39-11.92
			c-1.11-2.42-3.64-4.36-6.14-5.15c-1.31-0.42-2.86-0.73-4.57-0.98c-7.22-1.06-14.55-0.77-21.8-1.56
			C89.79,75.49,82.13,73.24,76.66,68.76L76.66,68.76z"/>
	</defs>
	<defs>
		<path id="SVGID_370_" d="M62.96,18.06c24.76,0,45.67,16.46,52.39,39.04c-13.44,7.3-28.49,12.68-45.27,16.03
			c-0.6-20-3.79-38.27-9.29-55.02C61.51,18.08,62.23,18.06,62.96,18.06L62.96,18.06z"/>
	</defs>
	<clipPath id="SVGID_371_">
		<use xlink:href="#SVGID_369_"  style="overflow:visible;"/>
	</clipPath>
	<clipPath id="SVGID_372_" style="clip-path:url(#SVGID_371_);">
		<use xlink:href="#SVGID_370_"  style="overflow:visible;"/>
	</clipPath>
	<g style="clip-path:url(#SVGID_372_);">
		<defs>
			<rect id="SVGID_373_" x="72.26" y="61.25" width="7.68" height="10.32"/>
		</defs>
		<clipPath id="SVGID_374_">
			<use xlink:href="#SVGID_373_"  style="overflow:visible;"/>
		</clipPath>
		<g style="clip-path:url(#SVGID_374_);">
			
				<image style="overflow:visible;" width="24" height="25" xlink:href="94C243CFFB011F79.jpg"  transform="matrix(0.48 0 0 -0.48 70.8765 72.6074)">
			</image>
		</g>
	</g>
</g>
<g>
	<defs>
		<path id="SVGID_375_" d="M62.96,18.06c24.76,0,45.67,16.46,52.39,39.04c-13.44,7.3-28.49,12.68-45.27,16.03
			c-0.6-20-3.79-38.27-9.29-55.02C61.51,18.08,62.23,18.06,62.96,18.06L62.96,18.06z"/>
	</defs>
	<clipPath id="SVGID_376_">
		<use xlink:href="#SVGID_375_"  style="overflow:visible;"/>
	</clipPath>
	<path style="clip-path:url(#SVGID_376_);fill-rule:evenodd;clip-rule:evenodd;fill:#FBD1A2;" d="M50.05,26.25
		c0.01,0.01,0.21,0.15,0.21,0.16c4.03,2.27,10.6,3.81,18.91,4.84c-7.18-0.52-13.6-1.66-19.24-3.47
		C49.97,27.27,50.01,26.76,50.05,26.25L50.05,26.25z"/>
</g>
<path style="fill:#0799D1;" d="M278.53,71.03c0-3.84,0.11-6.12,0.23-8.01h-6.12l-0.29,3.72h-0.11c-1.32-2.29-3.83-4.35-8.07-4.35
	c-6.7,0-12.65,5.55-12.65,14.71c0,7.9,4.92,13.62,11.85,13.62c3.66,0,6.52-1.66,8.13-4.12h0.11v2.4c0,6.01-3.43,8.41-8.01,8.41
	c-3.38,0-6.35-1.09-8.13-2.12l-1.55,5.32c2.4,1.49,6.18,2.23,9.73,2.23c3.83,0,7.84-0.8,10.76-3.38c2.92-2.63,4.12-6.81,4.12-12.65
	V71.03L278.53,71.03z M271.49,78.7c0,0.8-0.11,1.77-0.29,2.52c-0.8,2.52-3.09,4.24-5.72,4.24c-4.41,0-6.81-3.84-6.81-8.59
	c0-5.67,2.92-9.1,6.87-9.1c2.98,0,4.98,1.95,5.72,4.52c0.17,0.57,0.23,1.26,0.23,1.89V78.7L271.49,78.7z"/>
<polygon style="fill:#666766;" points="172.62,90.66 172.62,62.65 179.14,62.65 179.14,90.65 172.62,90.66 "/>
<path style="fill:#666766;" d="M155.12,90.67H143.5V52.69c5.12-0.24,8.72-0.36,10.77-0.36c3.95,0,7.04,0.84,9.26,2.53
	c2.22,1.69,3.34,4.11,3.34,7.24c0,3.01-1.59,5.39-4.78,7.14c4.71,1.64,7.06,5.03,7.06,10.16c0,3.45-1.3,6.2-3.91,8.22
	C162.63,89.65,159.26,90.67,155.12,90.67L155.12,90.67z M150.25,72.48v12.53c1.36,0.12,2.47,0.19,3.32,0.19c3,0,5.19-0.51,6.54-1.53
	c1.35-1.02,2.04-2.71,2.04-5.07c0-2.16-0.63-3.73-1.89-4.72c-1.26-0.98-3.46-1.48-6.6-1.48C152.98,72.4,151.86,72.43,150.25,72.48
	L150.25,72.48z M150.25,58.09v9.11c1.04,0.07,2.13,0.11,3.27,0.11c4.4,0,6.6-1.65,6.6-4.96c0-2.93-2-4.39-6-4.39
	C153.06,57.96,151.77,58,150.25,58.09L150.25,58.09z"/>
<polygon style="fill:#0799D1;" points="131.96,90.66 131.97,62.65 138.49,62.65 138.49,90.65 131.96,90.66 "/>
<path style="fill:#0799D1;" d="M281.37,63.02l10.19,25.54c0.34,0.69,0.4,1.09,0.4,1.38c0,0.34-0.17,0.74-0.46,1.26
	c-0.97,1.88-2.52,3.54-3.83,4.4c-1.43,1.03-2.92,1.66-4.12,1.95l1.6,5.95c1.77-0.23,4.64-1.14,7.38-3.61
	c3.32-2.86,5.9-7.49,9.73-17.89l6.98-18.97h-7.56l-4.35,14.85c-0.52,1.83-1.03,3.89-1.49,5.48h-0.17c-0.4-1.59-0.97-3.71-1.55-5.43
	l-5.04-14.91H281.37L281.37,63.02z"/>
<polygon style="fill:#0799D1;" points="212.61,90.66 212.61,52.45 219.13,52.45 219.13,90.65 212.61,90.66 "/>
<path style="fill:#0799D1;" d="M135.23,51.97c1.03,0,1.91,0.37,2.64,1.1c0.73,0.73,1.1,1.6,1.1,2.64c0,1.03-0.37,1.91-1.1,2.64
	c-0.73,0.73-1.6,1.1-2.64,1.1c-1.03,0-1.91-0.37-2.64-1.1c-0.73-0.73-1.1-1.61-1.1-2.64c0-1.04,0.37-1.91,1.1-2.64
	C133.32,52.34,134.2,51.97,135.23,51.97L135.23,51.97z"/>
<path style="fill:#666766;" d="M175.88,51.97c1.03,0,1.91,0.37,2.64,1.1c0.73,0.73,1.1,1.6,1.1,2.64c0,1.03-0.37,1.91-1.1,2.64
	c-0.73,0.73-1.6,1.1-2.64,1.1c-1.03,0-1.91-0.37-2.64-1.1c-0.73-0.73-1.1-1.61-1.1-2.64c0-1.04,0.37-1.91,1.1-2.64
	C173.97,52.34,174.85,51.97,175.88,51.97L175.88,51.97z"/>
<path style="fill-rule:evenodd;clip-rule:evenodd;fill:#666766;" d="M204.96,76.82c-0.12,0.25-0.29,0.46-0.51,0.63l-11.21,8.26
	c-0.15,0.12-0.33,0.21-0.51,0.27c-0.18,0.06-0.38,0.09-0.57,0.09h0v0c-0.5,0-0.95-0.2-1.27-0.53c-0.32-0.32-0.52-0.77-0.52-1.27v0
	l0.03-15.74c0-0.49,0.2-0.93,0.52-1.26c0.32-0.32,0.76-0.52,1.25-0.53h0h0.02l0,0c0.18,0,0.35,0.03,0.52,0.08
	c0.17,0.05,0.34,0.12,0.48,0.22l11.19,7.52c0.24,0.17,0.43,0.39,0.56,0.65c0.13,0.25,0.2,0.53,0.2,0.83
	C205.14,76.31,205.08,76.58,204.96,76.82L204.96,76.82z M205.82,65.93c-2.31-2.53-5.55-3.8-9.72-3.8c-3.97,0-7.17,1.32-9.59,3.96
	c-2.42,2.64-3.63,6.06-3.63,10.26c0,4.33,1.16,7.81,3.48,10.42c2.31,2.61,5.56,3.92,9.74,3.92c4.08,0,7.3-1.3,9.66-3.88
	c2.35-2.59,3.52-6.07,3.52-10.46C209.28,71.93,208.12,68.46,205.82,65.93L205.82,65.93z"/>
<g>
	<path style="fill:#666766;" d="M347.89,63.93l-0.55,5.45c-1.23-0.49-2.29-0.84-3.15-1.06c-0.87-0.22-1.63-0.33-2.29-0.33
		c-2.61,0-4.7,0.8-6.3,2.4c-1.59,1.6-2.38,3.7-2.38,6.31c0,2.61,0.79,4.74,2.38,6.39c1.59,1.65,3.65,2.48,6.19,2.48
		c0.92,0,1.85-0.14,2.8-0.42c0.95-0.28,2.01-0.73,3.19-1.36l0.26,5.55c-1.93,0.66-3.44,1.1-4.52,1.33
		c-1.09,0.23-2.11,0.34-3.06,0.34c-4.41,0-7.94-1.32-10.57-3.95c-2.63-2.63-3.95-6.14-3.95-10.52c0-4.05,1.36-7.39,4.08-10.04
		c2.72-2.64,6.18-3.96,10.39-3.96c1.55,0,3.6,0.35,6.15,1.04C347.15,63.75,347.6,63.86,347.89,63.93z"/>
	<path style="fill:#666766;" d="M432.9,62.86l-0.26,6.26c-0.36-0.12-0.75-0.21-1.15-0.27c-0.4-0.06-0.82-0.09-1.25-0.09
		c-2.29,0-4.04,0.76-5.24,2.28c-1.2,1.52-1.8,3.73-1.8,6.63v12.64h-6.93V63.26h6.23v5.4c0.87-2.02,1.97-3.53,3.3-4.54
		c1.33-1.01,2.9-1.51,4.7-1.51c0.31,0,0.66,0.02,1.04,0.07C431.93,62.71,432.38,62.78,432.9,62.86z"/>
	<path style="fill:#666766;" d="M454.54,64.09l-0.52,5.13c-1.2-0.63-2.38-1.09-3.55-1.41c-1.16-0.31-2.32-0.47-3.47-0.47
		c-1.25,0-2.21,0.21-2.88,0.64c-0.67,0.43-1,1.04-1,1.84c0,1.2,1.42,2.42,4.25,3.67c0.31,0.14,0.55,0.24,0.7,0.31
		c2.9,1.29,4.9,2.55,5.99,3.79c1.09,1.24,1.64,2.78,1.64,4.6c0,2.57-1.03,4.61-3.08,6.11c-2.05,1.5-4.85,2.26-8.39,2.26
		c-1.49,0-2.95-0.12-4.37-0.35c-1.42-0.23-2.76-0.58-4.03-1.03l0.39-5.34c1.29,0.64,2.6,1.12,3.95,1.45s2.68,0.48,4,0.48
		c1.37,0,2.44-0.23,3.19-0.69c0.76-0.46,1.13-1.1,1.13-1.92c0-1.34-1.79-2.9-5.37-4.69l-0.13-0.08c-2.68-1.32-4.48-2.55-5.42-3.68
		s-1.41-2.5-1.41-4.12c0-2.38,1-4.32,3.01-5.81c2.01-1.49,4.64-2.24,7.91-2.24c0.87,0,1.83,0.1,2.89,0.31S452.57,63.48,454.54,64.09
		z"/>
	<path style="fill:#666766;" d="M484.66,76.5v2.19H465.6c0.19,2.28,1.07,4.07,2.64,5.38c1.57,1.31,3.64,1.97,6.22,1.97
		c1.41,0,2.78-0.17,4.11-0.5c1.33-0.33,2.61-0.82,3.84-1.49v5.34c-1.32,0.54-2.75,0.94-4.27,1.21c-1.53,0.27-3.16,0.4-4.9,0.4
		c-4.52,0-8.05-1.3-10.59-3.9c-2.55-2.6-3.82-6.2-3.82-10.8c0-4.1,1.24-7.42,3.71-9.96c2.48-2.54,5.7-3.81,9.68-3.81
		c3.93,0,6.98,1.22,9.16,3.66C483.57,68.66,484.66,72.08,484.66,76.5z M478.38,74.36c-0.19-2.29-0.83-4.08-1.93-5.36
		c-1.09-1.28-2.52-1.92-4.27-1.92c-1.79,0-3.27,0.64-4.43,1.92c-1.16,1.28-1.88,3.06-2.14,5.36H478.38z"/>
	<path style="fill:#666766;" d="M507.28,64.09l-0.52,5.13c-1.2-0.63-2.38-1.09-3.55-1.41s-2.32-0.47-3.47-0.47
		c-1.25,0-2.21,0.21-2.88,0.64c-0.67,0.43-1,1.04-1,1.84c0,1.2,1.42,2.42,4.25,3.67c0.31,0.14,0.55,0.24,0.7,0.31
		c2.9,1.29,4.9,2.55,5.99,3.79c1.09,1.24,1.64,2.78,1.64,4.6c0,2.57-1.03,4.61-3.08,6.11c-2.05,1.5-4.85,2.26-8.39,2.26
		c-1.49,0-2.95-0.12-4.37-0.35c-1.42-0.23-2.76-0.58-4.03-1.03l0.39-5.34c1.29,0.64,2.6,1.12,3.95,1.45c1.35,0.32,2.68,0.48,4,0.48
		c1.37,0,2.44-0.23,3.19-0.69c0.76-0.46,1.13-1.1,1.13-1.92c0-1.34-1.79-2.9-5.37-4.69l-0.13-0.08c-2.68-1.32-4.48-2.55-5.42-3.68
		c-0.94-1.13-1.41-2.5-1.41-4.12c0-2.38,1-4.32,3.01-5.81c2.01-1.49,4.64-2.24,7.91-2.24c0.87,0,1.83,0.1,2.89,0.31
		S505.32,63.48,507.28,64.09z"/>
</g>
<path style="fill:#0799D1;" d="M222.39,76.75c0-4.2,1.21-7.62,3.63-10.26c2.42-2.64,5.62-3.96,9.59-3.96c4.17,0,7.41,1.27,9.72,3.8
	c2.31,2.54,3.46,6.01,3.46,10.41c0,4.38-1.17,7.87-3.52,10.46c-2.36,2.59-5.58,3.88-9.66,3.88c-4.18,0-7.43-1.3-9.74-3.92
	C223.54,84.57,222.39,81.09,222.39,76.75L222.39,76.75z M229.07,76.75c0,6.06,2.18,9.08,6.54,9.08c2,0,3.58-0.79,4.75-2.36
	c1.17-1.58,1.75-3.82,1.75-6.72c0-5.97-2.17-8.96-6.5-8.96c-2.01,0-3.59,0.79-4.77,2.36C229.65,71.73,229.07,73.93,229.07,76.75
	L229.07,76.75z"/>
<path style="fill:#666766;" d="M352.44,77.17c0-4.28,1.23-7.77,3.7-10.46c2.47-2.69,5.73-4.04,9.78-4.04c4.26,0,7.56,1.3,9.92,3.88
	c2.35,2.59,3.53,6.13,3.53,10.62c0,4.47-1.2,8.03-3.59,10.67c-2.41,2.64-5.69,3.96-9.85,3.96c-4.27,0-7.57-1.33-9.93-4
	C353.62,85.14,352.44,81.59,352.44,77.17L352.44,77.17z M359.25,77.17c0,6.18,2.23,9.26,6.67,9.26c2.04,0,3.65-0.8,4.85-2.4
	c1.19-1.61,1.79-3.9,1.79-6.86c0-6.09-2.21-9.14-6.63-9.14c-2.05,0-3.67,0.8-4.86,2.41C359.85,72.05,359.25,74.29,359.25,77.17
	L359.25,77.17z"/>
<path style="fill:#666766;" d="M384,63.77h6.99v14.36c0,2.5,0.43,4.34,1.3,5.53c0.87,1.18,2.22,1.77,4.04,1.77
	c2.07,0,3.64-0.82,4.73-2.46c1.09-1.64,1.63-4.02,1.63-7.13V63.77h6.99v27.06h-6.36v-5.19c-1.01,1.84-2.32,3.24-3.95,4.18
	c-1.63,0.95-3.51,1.42-5.64,1.42c-3.18,0-5.6-0.99-7.25-2.96c-1.65-1.97-2.48-4.86-2.48-8.67V63.77z"/>
</svg>
